<?xml version="1.0" encoding="UTF-8"?>
<svg xmlns="http://www.w3.org/2000/svg" width="343.821" height="343.817" viewBox="0 0 343.821 343.817">
  <g id="_24hours_icon" data-name="24hours_icon" transform="translate(-1365.508 -789.656)">
    <g id="Group_162267" data-name="Group 162267" transform="translate(1365.508 789.656)">
      <circle id="Ellipse_9426" data-name="Ellipse 9426" cx="11.019" cy="11.019" r="11.019" transform="translate(274.669 47.603) rotate(-13.283)" fill="#fd0e33"></circle>
      <g id="Group_162266" data-name="Group 162266" transform="translate(24.375 24.375)">
        <path id="Path_83301" data-name="Path 83301" d="M1424.115,804.064a8.089,8.089,0,0,0-16.179,0v3.479a8.089,8.089,0,0,0,16.179,0Z" transform="translate(-1268.677 -795.976)" fill="#fff"></path>
        <path id="Path_83302" data-name="Path 83302" d="M1424.115,875.474a8.089,8.089,0,0,0-16.179,0v3.49a8.089,8.089,0,0,0,16.179,0Z" transform="translate(-1268.677 -591.965)" fill="#fff"></path>
        <path id="Path_83303" data-name="Path 83303" d="M1383.4,832.084h-3.479a8.088,8.088,0,1,0,0,16.176h3.479a8.088,8.088,0,0,0,0-16.176Z" transform="translate(-1371.828 -692.825)" fill="#fff"></path>
        <path id="Path_83304" data-name="Path 83304" d="M1451.327,848.26h3.49a8.088,8.088,0,0,0,0-16.176h-3.49a8.088,8.088,0,0,0,0,16.176Z" transform="translate(-1167.813 -692.825)" fill="#fff"></path>
        <path id="Path_83305" data-name="Path 83305" d="M1398.875,811.592l-2.715-2.715a8.09,8.09,0,0,0-11.439,11.443l2.712,2.711a8.09,8.09,0,1,0,11.443-11.439Z" transform="translate(-1341.738 -765.897)" fill="#fff"></path>
        <path id="Path_83306" data-name="Path 83306" d="M1449.042,861.74l-2.318-2.318a8.089,8.089,0,1,0-11.439,11.439l2.318,2.322a8.09,8.09,0,0,0,11.439-11.443Z" transform="translate(-1197.327 -621.469)" fill="#fff"></path>
        <path id="Path_83307" data-name="Path 83307" d="M1399.3,859.887a8.085,8.085,0,0,0-11.4-.883l-2.712,2.318a8.085,8.085,0,0,0,10.506,12.291l2.711-2.318a8.087,8.087,0,0,0,.9-11.408Z" transform="translate(-1341.742 -621.475)" fill="#fff"></path>
      </g>
      <path id="Path_83308" data-name="Path 83308" d="M1709.329,961.378a170.66,170.66,0,0,0-38.9-108.61,1.87,1.87,0,0,0-2.765-.128l-8.827,8.828a1.861,1.861,0,0,0-.127,2.488,154.616,154.616,0,0,1,34.363,102.986c-2.847,80.9-67.983,146.652-148.859,150.212-88.935,3.918-162.535-67.486-162.523-155.8.012-86.306,71.249-156.6,157.548-155.515a155.439,155.439,0,0,1,96.349,34.923,1.858,1.858,0,0,0,2.491-.124l8.828-8.828a1.873,1.873,0,0,0-.124-2.765,171.512,171.512,0,0,0-109.835-39.393c-93.85.154-170.745,76.591-171.432,170.441-.694,95.477,76.606,173.376,171.722,173.376C1632.13,1133.473,1709.329,1056.273,1709.329,961.378Z" transform="translate(-1365.508 -789.656)" fill="#fff"></path>
    </g>
    <g id="Group_162268" data-name="Group 162268" transform="translate(1451.371 887.66)">
      <path id="Path_83309" data-name="Path 83309" d="M1389.295,916.291l2.067-17.9,48.3-40.091c3.961-3.294,6.089-6.873,6.537-10.737.609-5.3-3.475-9.592-9.2-9.592-6.44,0-12.241,5.581-13.086,12.885H1400a39.569,39.569,0,0,1,13.236-25.342c7.825-7.019,16.529-10.452,26.407-10.452,9.45,0,17.1,3.147,23.09,9.592,6,6.3,8.419,13.888,7.378,22.909q-1.689,14.6-16.874,27.059l-21.15,17.039h34.36l-2.842,24.626Z" transform="translate(-1383.417 -815.067)" fill="#fff"></path>
      <path id="Path_83310" data-name="Path 83310" d="M1411.371,898.339l2.168-18.759,38.479-64.142h27.633L1443.9,874.57h20.047l2.017-17.467h26.488l-6.715,58.128h-26.487l1.951-16.892Z" transform="translate(-1320.352 -814.007)" fill="#fff"></path>
      <path id="Path_83311" data-name="Path 83311" d="M1387.771,876.774l3.672-31.792h8.666l-1.276,11.038h11.952l1.276-11.038h8.667l-3.672,31.792h-8.667l1.477-12.816h-11.948l-1.481,12.816Z" transform="translate(-1387.771 -729.605)" fill="#fff"></path>
      <path id="Path_83312" data-name="Path 83312" d="M1425.529,872.961a19.491,19.491,0,0,1-12.959,4.79,15.615,15.615,0,0,1-11.855-4.79,13.851,13.851,0,0,1-3.764-11.632A17.579,17.579,0,0,1,1403.4,849.7a19.327,19.327,0,0,1,12.963-4.832,15.466,15.466,0,0,1,11.851,4.832,13.761,13.761,0,0,1,3.811,11.632A17.631,17.631,0,0,1,1425.529,872.961Zm-17.934-5.473a7.441,7.441,0,0,0,5.87,2.507,9.381,9.381,0,0,0,6.406-2.553,9.509,9.509,0,0,0,3.3-6.113,7.531,7.531,0,0,0-1.893-6.109,7.311,7.311,0,0,0-5.813-2.6,9.255,9.255,0,0,0-6.413,2.6,9.5,9.5,0,0,0-3.26,6.109A7.565,7.565,0,0,0,1407.6,867.488Z" transform="translate(-1361.88 -729.942)" fill="#fff"></path>
      <path id="Path_83313" data-name="Path 83313" d="M1409.024,844.983h8.67l-1.986,17.2c-.606,5.245,1.173,7.208,4.779,7.208s5.835-1.963,6.44-7.208l1.987-17.2h8.67l-2.094,18.108c-.533,4.609-2.307,8.122-5.277,10.541a16.342,16.342,0,0,1-10.633,3.6c-4.107,0-7.39-1.188-9.8-3.6s-3.375-5.932-2.842-10.541Z" transform="translate(-1333.435 -729.605)" fill="#fff"></path>
      <path id="Path_83314" data-name="Path 83314" d="M1415.074,876.774l3.672-31.792h14.462a10.028,10.028,0,0,1,7.706,3.19,9.279,9.279,0,0,1,2.433,7.76,11.311,11.311,0,0,1-6.48,9.075l6.58,11.767h-9.943l-5.334-9.9h-3.286l-1.142,9.9Zm10.614-16.831h4.832a3.926,3.926,0,0,0,4.173-3.737c.231-2.009-.933-3.378-2.623-3.378h-5.562Z" transform="translate(-1309.773 -729.605)" fill="#fff"></path>
      <path id="Path_83315" data-name="Path 83315" d="M1429.191,866.119a8.607,8.607,0,0,0,7.483,3.922c2.831,0,4.331-.775,4.508-2.279.1-.868-.381-1.461-1.554-1.963-.567-.228-1.18-.455-1.8-.636-1.188-.366-3.39-1.049-4.832-1.6-4.671-1.824-6.78-4.883-6.287-9.168a9.458,9.458,0,0,1,4.142-7.027,14.267,14.267,0,0,1,8.365-2.507q7.868,0,11.184,5.06l-6.267,4.883a6.28,6.28,0,0,0-5.457-2.511c-2.238,0-3.564.822-3.7,1.964a1.533,1.533,0,0,0,1.069,1.824,8.566,8.566,0,0,0,1.531.548,47.45,47.45,0,0,1,5.415,1.685c5.25,1.963,7.15,4.836,6.649,9.171-.71,6.159-5.4,10.082-13.842,10.082a16.307,16.307,0,0,1-8.577-1.963,12.907,12.907,0,0,1-4.693-4.79Z" transform="translate(-1288.459 -729.942)" fill="#fff"></path>
    </g>
  </g>
</svg>
