<?xml version="1.0" encoding="UTF-8"?>
<svg xmlns="http://www.w3.org/2000/svg" width="28" height="28" viewBox="0 0 28 28">
  <g>
    <g>
      <g>
        <path fill="#fff" d="M14.255 1.22C7.415 1.22 1.85 6.785 1.85 13.625c0 6.84 5.565 12.405 12.405 12.405 6.84 0 12.405-5.565 12.405-12.405 0-6.84-5.565-12.405-12.405-12.405m0 26.03C6.742 27.25.63 21.138.63 13.625S6.742 0 14.255 0 27.88 6.112 27.88 13.625 21.768 27.25 14.255 27.25"></path>
      </g>
      <g>
        <path fill="#fff" d="M14.255 18.493c.097 0 .194.024.283.071l4.648 2.472-.888-5.236a.62.62 0 0 1 .175-.544l3.76-3.708-5.196-.764a.608.608 0 0 1-.458-.337l-2.324-4.763-2.324 4.763a.608.608 0 0 1-.458.337l-5.196.764 3.76 3.708a.62.62 0 0 1 .175.544l-.888 5.236 4.648-2.472a.603.603 0 0 1 .283-.07m5.739 4.282a.601.601 0 0 1-.283-.07l-5.456-2.902-5.456 2.901a.602.602 0 0 1-.64-.047.618.618 0 0 1-.242-.601l1.042-6.146-4.414-4.352a.62.62 0 0 1-.154-.63.61.61 0 0 1 .491-.42l6.1-.896L13.71 4.02a.607.607 0 0 1 1.09 0l2.728 5.592 6.1.896a.61.61 0 0 1 .491.42.62.62 0 0 1-.154.63l-4.414 4.352 1.042 6.146a.619.619 0 0 1-.242.601.603.603 0 0 1-.357.118"></path>
      </g>
    </g>
  </g>
</svg>
