<?xml version="1.0" encoding="UTF-8"?>
<svg xmlns="http://www.w3.org/2000/svg" xmlns:xlink="http://www.w3.org/1999/xlink" version="1.1" id="Layer_1" x="0px" y="0px" viewBox="0 0 302 302" style="enable-background:new 0 0 302 302;" xml:space="preserve">
<style type="text/css">
	.st0{clip-path:url(#SVGID_00000164491441383425304080000016804101342760059783_);}
	.st1{fill:#FFFFFF;}
	.st2{clip-path:url(#SVGID_00000071556209205606539340000013715167528374997679_);}
	.st3{fill:#FD0E33;}
	.st4{clip-path:url(#SVGID_00000099619990503692412590000002781716179497558168_);}
	.st5{clip-path:url(#SVGID_00000075860776812680569290000015095925916614421158_);}
	.st6{clip-path:url(#SVGID_00000090256277626920788580000014033073203761922211_);}
	.st7{clip-path:url(#SVGID_00000073718321861045426770000011685892893140863678_);}
	.st8{clip-path:url(#SVGID_00000098193101782131616680000011348008323009157792_);}
	.st9{clip-path:url(#SVGID_00000124147787890700610690000001971652255034110636_);}
	.st10{clip-path:url(#SVGID_00000153679356231454034100000010518651659733485755_);}
	.st11{clip-path:url(#SVGID_00000131354922064828099040000009523821950067748740_);}
	.st12{clip-path:url(#SVGID_00000164477772901759908130000002319025338281126529_);}
	.st13{clip-path:url(#SVGID_00000008828044717602097460000007169994392187676571_);}
	.st14{clip-path:url(#SVGID_00000048463880027732184370000014823395425559549833_);}
	.st15{clip-path:url(#SVGID_00000162331265101686066720000012113301392588813746_);}
	.st16{clip-path:url(#SVGID_00000134245413506823226350000004479235677334876573_);}
	.st17{clip-path:url(#SVGID_00000065767546218204879990000015329007054699031209_);}
	.st18{clip-path:url(#SVGID_00000050650998701820816700000012698258133158220161_);}
	.st19{clip-path:url(#SVGID_00000029012861767016131720000015323494365352862348_);}
	.st20{clip-path:url(#SVGID_00000181072245628190034790000004105435001165770911_);}
	.st21{clip-path:url(#SVGID_00000112598120163746150650000012501257990391518606_);}
	.st22{clip-path:url(#SVGID_00000096028434770105045890000012041926282061329552_);}
	.st23{clip-path:url(#SVGID_00000062190615221243370410000004954824077036260784_);}
	.st24{clip-path:url(#SVGID_00000083060667076814108330000011751791921124609450_);}
	.st25{clip-path:url(#SVGID_00000064335446000319404030000004634111094377347975_);}
	.st26{clip-path:url(#SVGID_00000150090321252567549930000015584219590012763546_);}
	.st27{clip-path:url(#SVGID_00000048500443448164229920000004469605512162403224_);}
	.st28{clip-path:url(#SVGID_00000023255143753982818600000006567193629328753306_);}
	.st29{clip-path:url(#SVGID_00000146460191168347351490000013017428029226213517_);}
	.st30{clip-path:url(#SVGID_00000171710346846705077180000000262926833410978476_);}
	.st31{clip-path:url(#SVGID_00000074416667373053565740000002717027310282913967_);}
	.st32{clip-path:url(#SVGID_00000023962255605975351070000004716067224469024432_);}
	.st33{clip-path:url(#SVGID_00000053517307089274189320000013440105332424977327_);}
	.st34{clip-path:url(#SVGID_00000166652609659989413930000011383224355504106169_);}
	.st35{clip-path:url(#SVGID_00000111151330775134447240000009419363170859101887_);}
	.st36{clip-path:url(#SVGID_00000013159285121704599070000007651969971298132895_);}
	.st37{clip-path:url(#SVGID_00000003790199012563631170000015304860793926376115_);}
	.st38{clip-path:url(#SVGID_00000088132061364911042740000015554694154468089500_);}
</style>
<g>
	<g transform="rotate(3 1586.37 2109.63)">
		<g>
			<g>
				<defs>
					
						<rect id="SVGID_1_" x="-93" y="84.8" transform="matrix(0.1045 -0.9945 0.9945 0.1045 -181.7663 254.1425)" width="286.4" height="286.4"></rect>
				</defs>
				<clipPath id="SVGID_00000065769883594102191520000010488718571670459310_">
					<use xlink:href="#SVGID_1_" style="overflow:visible;"></use>
				</clipPath>
				<g style="clip-path:url(#SVGID_00000065769883594102191520000010488718571670459310_);">
					<path class="st1" d="M151.9,228.3c0,56.4-45.7,102.1-102.1,102.1S-52.3,284.7-52.3,228.3c0-56.4,45.7-102.1,102.1-102.1       C106.2,126.2,151.9,171.9,151.9,228.3"></path>
				</g>
			</g>
		</g>
		<g>
			<g>
				<defs>
					
						<rect id="SVGID_00000070803114930247219500000001373716091324471721_" x="-93" y="84.8" transform="matrix(0.1045 -0.9945 0.9945 0.1045 -181.7663 254.1425)" width="286.4" height="286.4"></rect>
				</defs>
				<clipPath id="SVGID_00000048495065175617753720000018236815944803233966_">
					<use xlink:href="#SVGID_00000070803114930247219500000001373716091324471721_" style="overflow:visible;"></use>
				</clipPath>
				<g style="clip-path:url(#SVGID_00000048495065175617753720000018236815944803233966_);">
					<path class="st3" d="M118.3,296.1c-18.2,18.2-42.3,28.2-68,28.2s-49.9-10-68-28.2c-18.2-18.2-28.2-42.3-28.2-68       s10-49.9,28.2-68c18.2-18.2,42.3-28.2,68-28.2s49.9,10,68,28.2c18.2,18.2,28.2,42.3,28.2,68S136.5,277.9,118.3,296.1        M182.2,172.3c-7.2-17.1-17.5-32.4-30.7-45.5c-13.1-13.1-28.5-23.5-45.5-30.7c-17.7-7.5-36.4-11.3-55.7-11.3       S12.2,88.6-5.5,96.1c-17.1,7.2-32.4,17.5-45.5,30.7c-13.1,13.1-23.5,28.5-30.7,45.5C-89.2,190-93,208.7-93,228       s3.8,38.1,11.3,55.7c7.2,17.1,17.5,32.4,30.7,45.5c13.1,13.1,28.5,23.5,45.5,30.7c17.7,7.5,36.4,11.3,55.7,11.3       s38.1-3.8,55.7-11.3c17.1-7.2,32.4-17.5,45.5-30.7c13.1-13.1,23.5-28.5,30.7-45.5c7.5-17.7,11.3-36.4,11.3-55.7       C193.5,208.7,189.7,189.9,182.2,172.3"></path>
				</g>
			</g>
		</g>
		<g>
			<g>
				<defs>
					
						<rect id="SVGID_00000047023089055863797130000018378659025428107444_" x="-93" y="84.8" transform="matrix(0.1045 -0.9945 0.9945 0.1045 -181.7663 254.1425)" width="286.4" height="286.4"></rect>
				</defs>
				<clipPath id="SVGID_00000005236253073192001770000013258922735445169544_">
					<use xlink:href="#SVGID_00000047023089055863797130000018378659025428107444_" style="overflow:visible;"></use>
				</clipPath>
				<g style="clip-path:url(#SVGID_00000005236253073192001770000013258922735445169544_);">
					<path class="st1" d="M-52.4,273.2c-0.4,1-1.1,1.7-2.1,2.1s-2,0.4-3,0c-1-0.4-1.7-1.2-2.1-2.1c-0.4-1-0.4-2,0-3       c0.4-1,1.1-1.7,2.1-2.1c1-0.4,2-0.4,3,0s1.7,1.1,2.1,2.1C-52,271.2-52,272.2-52.4,273.2"></path>
				</g>
			</g>
		</g>
		<g>
			<g>
				<defs>
					
						<rect id="SVGID_00000036246629632579926670000008175729170357089158_" x="-93" y="84.8" transform="matrix(0.1045 -0.9945 0.9945 0.1045 -181.7663 254.1425)" width="286.4" height="286.4"></rect>
				</defs>
				<clipPath id="SVGID_00000044166487467810613500000013473531788924540601_">
					<use xlink:href="#SVGID_00000036246629632579926670000008175729170357089158_" style="overflow:visible;"></use>
				</clipPath>
				<g style="clip-path:url(#SVGID_00000044166487467810613500000013473531788924540601_);">
					<path class="st1" d="M-74.1,225.1l3.3,3.5c-1.3,1.3-2,2.9-1.9,4.7c0.1,1.5,0.7,2.8,1.8,3.8s2.4,1.4,3.9,1.4       c1.5-0.1,2.8-0.7,3.8-1.8c0.9-1.1,1.4-2.4,1.3-3.9c-0.1-1.8-0.9-3.3-2.4-4.4l2.9-3.9c2.5,1.9,4.2,4.8,4.3,8       c0.2,3-0.7,5.6-2.5,7.9c-1.8,2.2-4.2,3.4-7.1,3.5c-2.9,0.2-5.4-0.8-7.5-2.7c-2.1-2-3.2-4.5-3.4-7.5       C-77.7,230.3-76.4,227.3-74.1,225.1"></path>
				</g>
			</g>
		</g>
		<g>
			<g>
				<defs>
					
						<rect id="SVGID_00000174580520015069651400000003831227243829751213_" x="-93" y="84.8" transform="matrix(0.1045 -0.9945 0.9945 0.1045 -181.7663 254.1425)" width="286.4" height="286.4"></rect>
				</defs>
				<clipPath id="SVGID_00000101803176964957333300000011907391077486775464_">
					<use xlink:href="#SVGID_00000174580520015069651400000003831227243829751213_" style="overflow:visible;"></use>
				</clipPath>
				<g style="clip-path:url(#SVGID_00000101803176964957333300000011907391077486775464_);">
					<path class="st1" d="M-57.4,220.6l-19.7-2.7l2-14.6l4.8,0.7l-1.2,9.2l2.7,0.4l1.2-8.6l4.4,0.6l-1.2,8.6l3,0.4l1.3-9.4l4.8,0.6       L-57.4,220.6z"></path>
				</g>
			</g>
		</g>
		<g>
			<g>
				<defs>
					
						<rect id="SVGID_00000068637579315412842940000002014990251326394788_" x="-93" y="84.8" transform="matrix(0.1045 -0.9945 0.9945 0.1045 -181.7663 254.1425)" width="286.4" height="286.4"></rect>
				</defs>
				<clipPath id="SVGID_00000052803914889637194580000005629011428836263852_">
					<use xlink:href="#SVGID_00000068637579315412842940000002014990251326394788_" style="overflow:visible;"></use>
				</clipPath>
				<g style="clip-path:url(#SVGID_00000052803914889637194580000005629011428836263852_);">
					<path class="st1" d="M-54.3,201.4l-19-6l1.6-5.2l14.3,4.5l2.3-7.2l4.7,1.5L-54.3,201.4z"></path>
				</g>
			</g>
		</g>
		<g>
			<g>
				<defs>
					
						<rect id="SVGID_00000057123968983434339480000002551212808854892952_" x="-93" y="84.8" transform="matrix(0.1045 -0.9945 0.9945 0.1045 -181.7663 254.1425)" width="286.4" height="286.4"></rect>
				</defs>
				<clipPath id="SVGID_00000032626995487938284710000010949787831041110925_">
					<use xlink:href="#SVGID_00000057123968983434339480000002551212808854892952_" style="overflow:visible;"></use>
				</clipPath>
				<g style="clip-path:url(#SVGID_00000032626995487938284710000010949787831041110925_);">
					<path class="st1" d="M-48.9,185.4l-17.7-9.1l6.7-13.1l4.3,2.2l-4.2,8.2l2.4,1.3l3.9-7.7l4,2l-3.9,7.7l2.7,1.4l4.3-8.4l4.3,2.2       L-48.9,185.4z"></path>
				</g>
			</g>
		</g>
		<g>
			<g>
				<defs>
					
						<rect id="SVGID_00000020399314167789812870000016565604853449356172_" x="-93" y="84.8" transform="matrix(0.1045 -0.9945 0.9945 0.1045 -181.7663 254.1425)" width="286.4" height="286.4"></rect>
				</defs>
				<clipPath id="SVGID_00000118398790973777208970000004089990911586785960_">
					<use xlink:href="#SVGID_00000020399314167789812870000016565604853449356172_" style="overflow:visible;"></use>
				</clipPath>
				<g style="clip-path:url(#SVGID_00000118398790973777208970000004089990911586785960_);">
					<path class="st1" d="M-43,159l2-2.6c0.8-1,1.9-1.1,2.7-0.5c0.9,0.7,1,1.9,0.3,2.8l-2.1,2.7L-43,159z M-48.7,154.6l1.6-2.1       c0.6-0.7,1.6-0.9,2.4-0.3c0.8,0.6,1,1.6,0.4,2.4l-1.6,2.1L-48.7,154.6z M-33.6,160.4c1.1-1.4,1.5-2.8,1.3-4.4       c-0.2-1.6-0.9-2.9-2.3-4c-2-1.6-4.3-1.6-6.4,0.2c0.5-1.7-0.1-3.3-1.6-4.5c-1.2-0.9-2.4-1.2-3.8-1c-1.4,0.2-2.5,0.9-3.5,2.1       l-5.7,7.3l15.8,12.2L-33.6,160.4z"></path>
				</g>
			</g>
		</g>
		<g>
			<g>
				<defs>
					
						<rect id="SVGID_00000000942213213887065670000001720126561130664068_" x="-93" y="84.8" transform="matrix(0.1045 -0.9945 0.9945 0.1045 -181.7663 254.1425)" width="286.4" height="286.4"></rect>
				</defs>
				<clipPath id="SVGID_00000132077529738836656000000015315366630172483984_">
					<use xlink:href="#SVGID_00000000942213213887065670000001720126561130664068_" style="overflow:visible;"></use>
				</clipPath>
				<g style="clip-path:url(#SVGID_00000132077529738836656000000015315366630172483984_);">
					<path class="st1" d="M-33.1,137.9l2.6-2.3c0.8-0.7,2-0.6,2.8,0.3c1,1.1,0.9,2.3-0.2,3.3l-2.3,2L-33.1,137.9z M-23.1,149.2       l-4.1-4.6l1.5-1.3l0,0l7.2,1.9l4.7-4.1l-8.6-2.2c0.9-2.1,0.5-4.6-1.2-6.5c-1.3-1.4-2.8-2.2-4.8-2.3c-1.9-0.1-3.6,0.6-5.1,1.9       l-6.8,6l13.2,14.9L-23.1,149.2z"></path>
				</g>
			</g>
		</g>
		<g>
			<g>
				<defs>
					
						<rect id="SVGID_00000085218305236328532300000005906860706486644103_" x="-93" y="84.8" transform="matrix(0.1045 -0.9945 0.9945 0.1045 -181.7663 254.1425)" width="286.4" height="286.4"></rect>
				</defs>
				<clipPath id="SVGID_00000054944855715968861250000005355192829274313357_">
					<use xlink:href="#SVGID_00000085218305236328532300000005906860706486644103_" style="overflow:visible;"></use>
				</clipPath>
				<g style="clip-path:url(#SVGID_00000054944855715968861250000005355192829274313357_);">
					<path class="st1" d="M-10.5,123.8l5.2,4.1l-4.1,2.4L-10.5,123.8z M-8.2,137.4l-0.4-2.8l6.6-3.9l2.2,1.7l5-2.9l-17.1-13.1       l-4.3,2.5l3,21.3L-8.2,137.4z"></path>
				</g>
			</g>
		</g>
		<g>
			<g>
				<defs>
					
						<rect id="SVGID_00000064351365443369800000000010604378081463091868_" x="-93" y="84.8" transform="matrix(0.1045 -0.9945 0.9945 0.1045 -181.7663 254.1425)" width="286.4" height="286.4"></rect>
				</defs>
				<clipPath id="SVGID_00000057869130042608388410000007931153272990566830_">
					<use xlink:href="#SVGID_00000064351365443369800000000010604378081463091868_" style="overflow:visible;"></use>
				</clipPath>
				<g style="clip-path:url(#SVGID_00000057869130042608388410000007931153272990566830_);">
					<path class="st1" d="M10.1,128l-5.2-14l-5,1.9l-1.7-4.6l15-5.6l1.7,4.6l-4.9,1.8l5.2,14.1L10.1,128z"></path>
				</g>
			</g>
		</g>
		<g>
			<g>
				<g transform="rotate(-12.588 125.605 35.785)">
					<path class="st1" d="M7.4,99.3l0-19.9h5.4l0,19.9H7.4z"></path>
				</g>
			</g>
		</g>
		<g>
			<g>
				<defs>
					
						<rect id="SVGID_00000003822088242245500050000006860414864850526602_" x="-93" y="84.8" transform="matrix(0.1045 -0.9945 0.9945 0.1045 -181.7663 254.1425)" width="286.4" height="286.4"></rect>
				</defs>
				<clipPath id="SVGID_00000036947732538647796530000016835239337764021684_">
					<use xlink:href="#SVGID_00000003822088242245500050000006860414864850526602_" style="overflow:visible;"></use>
				</clipPath>
				<g style="clip-path:url(#SVGID_00000036947732538647796530000016835239337764021684_);">
					<path class="st1" d="M34.4,121.1l-1.2-19.9l4.9-0.3l9,10.2l-0.6-10.7l5.2-0.3l1.2,19.9l-4.4,0.3L39,109.7l0.7,11.1L34.4,121.1z       "></path>
				</g>
			</g>
		</g>
		<g>
			<g>
				<defs>
					
						<rect id="SVGID_00000018956200934208642450000005852074081710098821_" x="-93" y="84.8" transform="matrix(0.1045 -0.9945 0.9945 0.1045 -181.7663 254.1425)" width="286.4" height="286.4"></rect>
				</defs>
				<clipPath id="SVGID_00000104691683686366906640000016831394682203418041_">
					<use xlink:href="#SVGID_00000018956200934208642450000005852074081710098821_" style="overflow:visible;"></use>
				</clipPath>
				<g style="clip-path:url(#SVGID_00000104691683686366906640000016831394682203418041_);">
					<path class="st1" d="M77.9,106.4l-4.1,2.5c-1-1.3-2.3-2.1-4.1-2.4c-1.5-0.2-2.8,0.1-4,0.9c-1.2,0.9-1.9,2.1-2.1,3.6       c-0.2,1.5,0.1,2.9,1,4.1c0.9,1.1,2.1,1.8,3.6,2.1c1.8,0.3,3.2-0.1,4.4-1.1l0.2-1.3l-5.1-0.8l0.7-4.5L78,111l-1.2,7.9       c-2.2,2.4-5.7,3.6-9.4,3.1c-3-0.5-5.4-1.8-7.2-4c-1.8-2.2-2.5-4.8-2-7.7c0.4-2.9,1.8-5.2,4.2-6.8c2.4-1.6,5.1-2.2,8.1-1.8       C73.6,102.2,76.2,103.7,77.9,106.4"></path>
				</g>
			</g>
		</g>
		<g>
			<g>
				<defs>
					
						<rect id="SVGID_00000169534504332656683170000018073759759511331257_" x="-93" y="84.8" transform="matrix(0.1045 -0.9945 0.9945 0.1045 -181.7663 254.1425)" width="286.4" height="286.4"></rect>
				</defs>
				<clipPath id="SVGID_00000059275797497914982000000018201671353849469870_">
					<use xlink:href="#SVGID_00000169534504332656683170000018073759759511331257_" style="overflow:visible;"></use>
				</clipPath>
				<g style="clip-path:url(#SVGID_00000059275797497914982000000018201671353849469870_);">
					<path class="st1" d="M94.1,129.6l6.3-13.6l-2.7-1.3l2.1-4.5l7.6,3.5L99,131.9L94.1,129.6z"></path>
				</g>
			</g>
		</g>
		<g>
			<g>
				<defs>
					
						<rect id="SVGID_00000147184848616710255720000003732782110695037326_" x="-93" y="84.8" transform="matrix(0.1045 -0.9945 0.9945 0.1045 -181.7663 254.1425)" width="286.4" height="286.4"></rect>
				</defs>
				<clipPath id="SVGID_00000063624293554731615720000017106722635017975967_">
					<use xlink:href="#SVGID_00000147184848616710255720000003732782110695037326_" style="overflow:visible;"></use>
				</clipPath>
				<g style="clip-path:url(#SVGID_00000063624293554731615720000017106722635017975967_);">
					<path class="st1" d="M109.7,130.4c-0.2,1.2,0.4,2.4,1.4,3.1c1.2,0.8,2.7,0.7,3.4-0.5c0.8-1.2,0.4-2.4-1-3.3       c-0.7-0.5-1.3-0.6-1.9-0.5l-2.8-3.1l7.5-7.5l8.6,5.6l-2.7,4.1l-5.4-3.5l-1.3,1.2c0.3,0.1,0.7,0.3,1.2,0.6       c1.6,1,2.6,2.5,3.1,4.3c0.5,1.8,0.2,3.5-0.8,5c-1,1.6-2.6,2.6-4.7,2.9c-2,0.3-4-0.2-5.8-1.4c-2.7-1.8-4.1-4.6-3.9-7.3       L109.7,130.4z"></path>
				</g>
			</g>
		</g>
		<g>
			<g>
				<defs>
					
						<rect id="SVGID_00000065794545618609406020000006028297754423311770_" x="-93" y="84.8" transform="matrix(0.1045 -0.9945 0.9945 0.1045 -181.7663 254.1425)" width="286.4" height="286.4"></rect>
				</defs>
				<clipPath id="SVGID_00000150818405240101811400000015991721066986186680_">
					<use xlink:href="#SVGID_00000065794545618609406020000006028297754423311770_" style="overflow:visible;"></use>
				</clipPath>
				<g style="clip-path:url(#SVGID_00000150818405240101811400000015991721066986186680_);">
					<path class="st1" d="M130.5,156l5.4-4.6l4.9-14.1l3.8,4.4l-3,8.4l8.7-1.7l3.8,4.4l-14.7,2.6L134,160L130.5,156z"></path>
				</g>
			</g>
		</g>
		<g>
			<g>
				<defs>
					
						<rect id="SVGID_00000065762036220949920350000001646137110035218844_" x="-93" y="84.8" transform="matrix(0.1045 -0.9945 0.9945 0.1045 -181.7663 254.1425)" width="286.4" height="286.4"></rect>
				</defs>
				<clipPath id="SVGID_00000002367602359221397320000005980020732006815166_">
					<use xlink:href="#SVGID_00000065762036220949920350000001646137110035218844_" style="overflow:visible;"></use>
				</clipPath>
				<g style="clip-path:url(#SVGID_00000002367602359221397320000005980020732006815166_);">
					<path class="st1" d="M140.5,168.7l17.3-9.8l7.3,12.8l-4.2,2.4l-4.6-8.1l-2.4,1.4l4.3,7.5l-3.9,2.2l-4.3-7.5l-2.6,1.5l4.7,8.3       l-4.2,2.4L140.5,168.7z"></path>
				</g>
			</g>
		</g>
		<g>
			<g>
				<defs>
					
						<rect id="SVGID_00000064350653353431339980000017984495815720325555_" x="-93" y="84.8" transform="matrix(0.1045 -0.9945 0.9945 0.1045 -181.7663 254.1425)" width="286.4" height="286.4"></rect>
				</defs>
				<clipPath id="SVGID_00000117673000827055865320000005233325560662064795_">
					<use xlink:href="#SVGID_00000064350653353431339980000017984495815720325555_" style="overflow:visible;"></use>
				</clipPath>
				<g style="clip-path:url(#SVGID_00000117673000827055865320000005233325560662064795_);">
					<path class="st1" d="M164.8,190l-5.1,4.2l-1.5-4.6L164.8,190z M151,189.4l2.8,0.2l2.4,7.3l-2.1,1.8l1.8,5.5l16.3-14l-1.6-4.7       l-21.5-1.4L151,189.4z"></path>
				</g>
			</g>
		</g>
		<g>
			<g>
				<defs>
					
						<rect id="SVGID_00000142896848816563331280000015904583145820213401_" x="-93" y="84.8" transform="matrix(0.1045 -0.9945 0.9945 0.1045 -181.7663 254.1425)" width="286.4" height="286.4"></rect>
				</defs>
				<clipPath id="SVGID_00000085212665549102005270000001790536575429130114_">
					<use xlink:href="#SVGID_00000142896848816563331280000015904583145820213401_" style="overflow:visible;"></use>
				</clipPath>
				<g style="clip-path:url(#SVGID_00000085212665549102005270000001790536575429130114_);">
					<path class="st1" d="M171.9,211l0.4,3.5c0.1,1.1-0.6,2-1.9,2.1c-1.5,0.2-2.4-0.6-2.6-2.1l-0.4-3L171.9,211z M157,212.7l6.2-0.7       l0.2,2v0.1l-5.7,4.8l0.7,6.2l6.7-5.8c1.2,1.9,3.5,3,6,2.7c1.9-0.2,3.4-1.1,4.6-2.6c1.2-1.5,1.6-3.3,1.4-5.3l-1.1-9l-19.8,2.3       L157,212.7z"></path>
				</g>
			</g>
		</g>
		<g>
			<g>
				<defs>
					
						<rect id="SVGID_00000012445145146657548560000011439451867110033568_" x="-93" y="84.8" transform="matrix(0.1045 -0.9945 0.9945 0.1045 -181.7663 254.1425)" width="286.4" height="286.4"></rect>
				</defs>
				<clipPath id="SVGID_00000085245932960556900100000000962264203067179931_">
					<use xlink:href="#SVGID_00000012445145146657548560000011439451867110033568_" style="overflow:visible;"></use>
				</clipPath>
				<g style="clip-path:url(#SVGID_00000085245932960556900100000000962264203067179931_);">
					<path class="st1" d="M165,230.7c-1.5,1-2.6,2.7-2.8,4.8c-0.1,1.8,0.3,2.7,1.3,2.7c0.5,0,0.9-0.3,1.3-1c0.2-0.4,0.3-0.8,0.5-1.1       c0.3-0.8,0.8-2.2,1.2-3.1c1.3-3,3.4-4.4,6-4.2c1.9,0.1,3.3,0.9,4.3,2.4s1.4,3.2,1.2,5.1c-0.2,3.3-1.4,5.7-3.6,7.2l-2.8-3.8       c1.1-0.8,1.7-2,1.8-3.5c0.1-1.4-0.4-2.2-1.1-2.2c-0.6,0-0.9,0.1-1.2,0.7c-0.2,0.3-0.3,0.6-0.4,1c-0.2,0.7-0.7,2.2-1.3,3.4       c-1.5,3.3-3.3,4.6-6,4.4c-3.8-0.3-6.1-3.1-5.8-8.3c0.1-2.2,0.7-4,1.6-5.4c0.9-1.4,2-2.4,3.2-3.1L165,230.7z"></path>
				</g>
			</g>
		</g>
		<g>
			<g>
				<defs>
					
						<rect id="SVGID_00000170262851851170567850000011570903405490119046_" x="-93" y="84.8" transform="matrix(0.1045 -0.9945 0.9945 0.1045 -181.7663 254.1425)" width="286.4" height="286.4"></rect>
				</defs>
				<clipPath id="SVGID_00000110443026024766580300000008581885470970017974_">
					<use xlink:href="#SVGID_00000170262851851170567850000011570903405490119046_" style="overflow:visible;"></use>
				</clipPath>
				<g style="clip-path:url(#SVGID_00000110443026024766580300000008581885470970017974_);">
					<path class="st1" d="M155.1,268.2c1-0.4,2-0.4,3,0s1.7,1.1,2.1,2.1c0.4,1,0.4,2,0,3s-1.1,1.7-2.1,2.1s-2,0.5-3,0       s-1.7-1.1-2.1-2.1c-0.4-1-0.4-2,0-3C153.4,269.3,154.1,268.6,155.1,268.2"></path>
				</g>
			</g>
		</g>
		<g>
			<g>
				<defs>
					
						<rect id="SVGID_00000115507488331660083170000011124218013487573160_" x="-166.5" y="99.5" transform="matrix(0.3142 -0.9494 0.9494 0.3142 -246.4128 144.3202)" width="286.4" height="286.4"></rect>
				</defs>
				<clipPath id="SVGID_00000057138698662638650470000009654292543022356918_">
					<use xlink:href="#SVGID_00000115507488331660083170000011124218013487573160_" style="overflow:visible;"></use>
				</clipPath>
				
					<g transform="rotate(-38.844 59.515 224.5)" style="clip-path:url(#SVGID_00000057138698662638650470000009654292543022356918_);">
					<path class="st1" d="M-78,224.2v-5.6l20.5,0v5.6L-78,224.2z"></path>
				</g>
			</g>
		</g>
		<g>
			<g>
				<defs>
					
						<rect id="SVGID_00000108308106789790856720000017475141232775226801_" x="-93" y="84.8" transform="matrix(0.1045 -0.9945 0.9945 0.1045 -181.7663 254.1425)" width="286.4" height="286.4"></rect>
				</defs>
				<clipPath id="SVGID_00000041992520890033403460000011731233274353933962_">
					<use xlink:href="#SVGID_00000108308106789790856720000017475141232775226801_" style="overflow:visible;"></use>
				</clipPath>
				<g style="clip-path:url(#SVGID_00000041992520890033403460000011731233274353933962_);">
					<path class="st1" d="M-42.2,317.1l13.7-15.2l3.7,3.3l-0.9,13.9l7.3-8.2l4,3.6l-13.7,15.2l-3.4-3l0.9-14.5l-7.6,8.5L-42.2,317.1       z"></path>
				</g>
			</g>
		</g>
		<g>
			<g>
				<defs>
					
						<rect id="SVGID_00000147920473701691461330000009193113082125303216_" x="-93" y="84.8" transform="matrix(0.1045 -0.9945 0.9945 0.1045 -181.7663 254.1425)" width="286.4" height="286.4"></rect>
				</defs>
				<clipPath id="SVGID_00000084506171889828822420000017879367141002394037_">
					<use xlink:href="#SVGID_00000147920473701691461330000009193113082125303216_" style="overflow:visible;"></use>
				</clipPath>
				<g style="clip-path:url(#SVGID_00000084506171889828822420000017879367141002394037_);">
					<path class="st1" d="M4.7,330.6l2.5,1c0.9,0.4,1.3,1.4,0.9,2.3c-0.4,1-1.4,1.4-2.3,1l-2.5-1L4.7,330.6z M1.8,337.4l3.2,1.3       c1.2,0.5,1.6,1.6,1.2,2.6c-0.4,1.1-1.6,1.5-2.7,1L0.3,341L1.8,337.4z M2.8,347.1c1.7,0.7,3.2,0.8,4.7,0.2       c1.6-0.6,2.7-1.7,3.3-3.3c1-2.4,0.4-4.7-1.8-6.3c1.8,0,3.2-1,4-2.8c0.6-1.4,0.6-2.8,0-4.1c-0.6-1.3-1.6-2.3-3-2.9l-8.8-3.7       l-7.9,18.9L2.8,347.1z"></path>
				</g>
			</g>
		</g>
		<g>
			<g>
				<defs>
					
						<rect id="SVGID_00000143601249559912620780000006075093022321943213_" x="-93" y="84.8" transform="matrix(0.1045 -0.9945 0.9945 0.1045 -181.7663 254.1425)" width="286.4" height="286.4"></rect>
				</defs>
				<clipPath id="SVGID_00000019665164200745510510000010869604868284099463_">
					<use xlink:href="#SVGID_00000143601249559912620780000006075093022321943213_" style="overflow:visible;"></use>
				</clipPath>
				<g style="clip-path:url(#SVGID_00000019665164200745510510000010869604868284099463_);">
					<path class="st1" d="M19.9,331.7l5.5,1.1l-2.2,10.9c-0.7,3.3,0.4,4.8,2.6,5.3c2.3,0.5,3.8-0.5,4.5-3.8l2.2-10.9l5.5,1.1       l-2.3,11.4c-0.6,2.9-1.9,5-3.9,6.1c-2,1.2-4.3,1.5-6.9,1s-4.6-1.7-6-3.6c-1.4-1.9-1.8-4.3-1.2-7.2L19.9,331.7z"></path>
				</g>
			</g>
		</g>
		<g>
			<g>
				<defs>
					
						<rect id="SVGID_00000178890245288848817730000008540635785675403907_" x="-93" y="84.8" transform="matrix(0.1045 -0.9945 0.9945 0.1045 -181.7663 254.1425)" width="286.4" height="286.4"></rect>
				</defs>
				<clipPath id="SVGID_00000141413490038128589260000013540147187391677326_">
					<use xlink:href="#SVGID_00000178890245288848817730000008540635785675403907_" style="overflow:visible;"></use>
				</clipPath>
				<g style="clip-path:url(#SVGID_00000141413490038128589260000013540147187391677326_);">
					<path class="st1" d="M44.4,349c1.1,1.5,2.9,2.6,5.1,2.6c1.8,0,2.7-0.5,2.8-1.4c0-0.6-0.3-0.9-1.1-1.3c-0.4-0.2-0.8-0.3-1.2-0.4       c-0.8-0.2-2.2-0.7-3.2-1.1c-3.1-1.2-4.7-3.2-4.6-6c0-1.9,0.8-3.4,2.2-4.5c1.5-1.1,3.2-1.6,5.2-1.5c3.4,0.1,5.9,1.2,7.5,3.4       l-3.7,3.1c-0.9-1.1-2.1-1.6-3.7-1.7c-1.4,0-2.2,0.5-2.3,1.2c0,0.6,0.2,0.9,0.8,1.2c0.3,0.2,0.7,0.3,1,0.4       c0.7,0.2,2.3,0.7,3.6,1.1c3.5,1.3,4.9,3.2,4.9,6c-0.1,4-2.8,6.4-8.3,6.4c-2.3,0-4.2-0.5-5.6-1.4c-1.5-0.9-2.6-1.9-3.3-3.1       L44.4,349z"></path>
				</g>
			</g>
		</g>
		<g>
			<g>
				<defs>
					
						<rect id="SVGID_00000150102797168759235730000015963486826706621357_" x="-112.2" y="106.2" transform="matrix(0.9864 -0.1646 0.1646 0.9864 -40.6359 8.5115)" width="286.4" height="286.4"></rect>
				</defs>
				<clipPath id="SVGID_00000003069485875322184230000005159732876460008077_">
					<use xlink:href="#SVGID_00000150102797168759235730000015963486826706621357_" style="overflow:visible;"></use>
				</clipPath>
				
					<g transform="rotate(-7.738 167.38 267.415)" style="clip-path:url(#SVGID_00000003069485875322184230000005159732876460008077_);">
					<path class="st1" d="M54,340.7l0-20.5l5.6,0l0,20.5H54z"></path>
				</g>
			</g>
		</g>
		<g>
			<g>
				<defs>
					
						<rect id="SVGID_00000029013599571472782570000015408398869589244807_" x="-93" y="84.8" transform="matrix(0.1045 -0.9945 0.9945 0.1045 -181.7663 254.1425)" width="286.4" height="286.4"></rect>
				</defs>
				<clipPath id="SVGID_00000124124741153828373100000010553941742674743732_">
					<use xlink:href="#SVGID_00000029013599571472782570000015408398869589244807_" style="overflow:visible;"></use>
				</clipPath>
				<g style="clip-path:url(#SVGID_00000124124741153828373100000010553941742674743732_);">
					<path class="st1" d="M79,353.2l-6-19.6l4.8-1.5l11.4,8L86,329.7l5.1-1.6l6,19.6l-4.3,1.3l-12-8.3l3.4,10.9L79,353.2z"></path>
				</g>
			</g>
		</g>
		<g>
			<g>
				<defs>
					
						<rect id="SVGID_00000043420506994967411430000006760988927316341646_" x="-93" y="84.8" transform="matrix(0.1045 -0.9945 0.9945 0.1045 -181.7663 254.1425)" width="286.4" height="286.4"></rect>
				</defs>
				<clipPath id="SVGID_00000145037957675934410310000002772724034046605230_">
					<use xlink:href="#SVGID_00000043420506994967411430000006760988927316341646_" style="overflow:visible;"></use>
				</clipPath>
				<g style="clip-path:url(#SVGID_00000145037957675934410310000002772724034046605230_);">
					<path class="st1" d="M105.3,344l-9.8-18l13.2-7.3l2.4,4.4l-8.3,4.6l1.4,2.5l7.8-4.3l2.2,4l-7.8,4.3l1.5,2.7l8.5-4.7l2.4,4.3       L105.3,344z"></path>
				</g>
			</g>
		</g>
		<g>
			<g>
				<defs>
					
						<rect id="SVGID_00000047743201053231018660000008050943355857104261_" x="-93" y="84.8" transform="matrix(0.1045 -0.9945 0.9945 0.1045 -181.7663 254.1425)" width="286.4" height="286.4"></rect>
				</defs>
				<clipPath id="SVGID_00000136384467009283705650000015917627902228598918_">
					<use xlink:href="#SVGID_00000047743201053231018660000008050943355857104261_" style="overflow:visible;"></use>
				</clipPath>
				<g style="clip-path:url(#SVGID_00000136384467009283705650000015917627902228598918_);">
					<path class="st1" d="M122.9,325c1.8,0.5,3.9,0.1,5.6-1.3c1.4-1.2,1.8-2.1,1.2-2.9c-0.4-0.4-0.9-0.5-1.7-0.3       c-0.4,0.1-0.8,0.3-1.2,0.4c-0.8,0.3-2.2,0.9-3.2,1.2c-3.2,1.1-5.6,0.6-7.4-1.6c-1.2-1.5-1.6-3.1-1.2-4.9s1.4-3.3,3-4.5       c2.6-2.1,5.3-2.9,7.9-2.3l-0.9,4.8c-1.4-0.3-2.7,0.1-3.9,1.1c-1.1,0.9-1.4,1.8-0.9,2.4c0.4,0.5,0.7,0.6,1.4,0.4       c0.3-0.1,0.7-0.2,1-0.4c0.6-0.3,2.2-1,3.5-1.4c3.5-1.2,5.8-0.7,7.6,1.4c2.5,3.1,2,6.8-2.2,10.2c-1.8,1.5-3.5,2.3-5.2,2.6       c-1.7,0.3-3.2,0.2-4.6-0.3L122.9,325z"></path>
				</g>
			</g>
		</g>
		<g>
			<g>
				<defs>
					
						<rect id="SVGID_00000042012585132684307210000008519528776113319095_" x="-93" y="84.8" transform="matrix(0.1045 -0.9945 0.9945 0.1045 -181.7663 254.1425)" width="286.4" height="286.4"></rect>
				</defs>
				<clipPath id="SVGID_00000117639444592329316730000009680710789096981408_">
					<use xlink:href="#SVGID_00000042012585132684307210000008519528776113319095_" style="overflow:visible;"></use>
				</clipPath>
				<g style="clip-path:url(#SVGID_00000117639444592329316730000009680710789096981408_);">
					<path class="st1" d="M138.9,310.6c1.8,0.1,3.8-0.6,5.2-2.2c1.2-1.4,1.4-2.4,0.7-3c-0.4-0.4-0.9-0.3-1.7,0       c-0.4,0.2-0.7,0.4-1.1,0.6c-0.7,0.4-2,1.3-2.9,1.8c-2.9,1.6-5.5,1.5-7.6-0.3c-1.5-1.3-2.1-2.8-2-4.6c0.1-1.8,0.8-3.5,2.2-5       c2.2-2.6,4.7-3.8,7.4-3.6v4.8c-1.4,0-2.6,0.6-3.6,1.8c-0.9,1.1-1.1,2-0.5,2.5c0.4,0.4,0.8,0.4,1.4,0.1c0.3-0.1,0.6-0.3,0.9-0.5       c0.6-0.4,2-1.4,3.2-2c3.3-1.9,5.6-1.7,7.7,0.1c3,2.6,3.1,6.3-0.4,10.4c-1.5,1.7-3,2.9-4.6,3.5s-3.1,0.7-4.5,0.6L138.9,310.6z"></path>
				</g>
			</g>
		</g>
		<g>
			<g>
				<defs>
					
						<rect id="SVGID_00000067205148790873726890000004226657076883824547_" x="-93" y="84.8" transform="matrix(0.1045 -0.9945 0.9945 0.1045 -181.7663 254.1425)" width="286.4" height="286.4"></rect>
				</defs>
				<clipPath id="SVGID_00000017474336137281110680000008817239899615570051_">
					<use xlink:href="#SVGID_00000067205148790873726890000004226657076883824547_" style="overflow:visible;"></use>
				</clipPath>
				<g style="clip-path:url(#SVGID_00000017474336137281110680000008817239899615570051_);">
					<path class="st3" d="M14.1,251.2l0-67.9H1.6l0-17.1h31.2v84.9H14.1V251.2z"></path>
				</g>
			</g>
		</g>
		<g>
			<g>
				<defs>
					
						<rect id="SVGID_00000061465859418859123380000016401431219011606416_" x="-93" y="84.8" transform="matrix(0.1045 -0.9945 0.9945 0.1045 -181.7663 254.1425)" width="286.4" height="286.4"></rect>
				</defs>
				<clipPath id="SVGID_00000068676646327308100080000013080483551225547406_">
					<use xlink:href="#SVGID_00000061465859418859123380000016401431219011606416_" style="overflow:visible;"></use>
				</clipPath>
				<g style="clip-path:url(#SVGID_00000068676646327308100080000013080483551225547406_);">
					<path class="st3" d="M54.5,226.2c2.6,5.5,8.3,9.1,14.7,9.1c7.9,0,14.5-5.7,14.5-13.2c0-7.9-6.1-13-14-13       c-4.6,0-8.2,1.2-10.6,3.7l-13.8-3.7l8.5-42.9h42.4v17.1H67.4L65,195c2.2-0.7,4.6-1.1,7.4-1.1c8.4,0,15.6,2.8,21.3,8.5       c5.7,5.6,8.7,12.3,8.7,20c0,8.4-3.2,15.6-9.6,21.3c-6.5,5.7-14.3,8.7-23.5,8.7c-13.2,0-24.5-6.8-29.9-17.2L54.5,226.2z"></path>
				</g>
			</g>
		</g>
		<g>
			<g>
				<defs>
					
						<rect id="SVGID_00000173120916846755665380000010303610927301924276_" x="-93" y="84.8" transform="matrix(0.1045 -0.9945 0.9945 0.1045 -181.7663 254.1425)" width="286.4" height="286.4"></rect>
				</defs>
				<clipPath id="SVGID_00000150820983723759153060000004424083592590020771_">
					<use xlink:href="#SVGID_00000173120916846755665380000010303610927301924276_" style="overflow:visible;"></use>
				</clipPath>
				<g style="clip-path:url(#SVGID_00000150820983723759153060000004424083592590020771_);">
					<path class="st3" d="M-5,286.7c0.7,0.2,1.7,0.4,2.8,0.4c0.9,0,1.5-0.2,2-0.5s0.8-0.8,1-1.5l0.4-1l-10-24.6h7.1l6.4,16.3       l5.8-16.3h7.1L7.1,286.6c-0.8,2-1.7,3.5-2.7,4.3c-1.5,1.4-3.6,2.1-6.3,2.1c-1.1,0-2.1-0.1-3.1-0.3L-5,286.7z"></path>
				</g>
			</g>
		</g>
		<g>
			<g>
				<defs>
					
						<rect id="SVGID_00000107547594591040317010000013634089590392222859_" x="-93" y="84.8" transform="matrix(0.1045 -0.9945 0.9945 0.1045 -181.7663 254.1425)" width="286.4" height="286.4"></rect>
				</defs>
				<clipPath id="SVGID_00000075844377411916793770000000191506024701013669_">
					<use xlink:href="#SVGID_00000107547594591040317010000013634089590392222859_" style="overflow:visible;"></use>
				</clipPath>
				<g style="clip-path:url(#SVGID_00000075844377411916793770000000191506024701013669_);">
					<path class="st3" d="M25.1,268.4c0.2-2.2,2.7-3.9,5.7-3.9c2.8,0,5.1,1.7,5.1,3.9H25.1z M18.1,271.3c0,3.7,1.2,6.6,3.5,8.9       c2.4,2.2,5.5,3.3,9.3,3.3c4,0,7.4-1.4,10.1-4.3l-4.1-3.9c-1.6,1.5-3.5,2.3-5.7,2.3c-3.7,0-6.1-1.8-6.2-4.6h17.8       c0-0.7,0.1-1.4,0.1-2.2c0-3.4-1.1-6.2-3.4-8.5c-2.2-2.3-5.1-3.5-8.7-3.5c-3.7,0-6.8,1.1-9.1,3.4c-2.4,2.2-3.6,5.2-3.6,8.9       L18.1,271.3z"></path>
				</g>
			</g>
		</g>
		<g>
			<g>
				<defs>
					
						<rect id="SVGID_00000176036790611666665530000011881526527768800945_" x="-93" y="84.8" transform="matrix(0.1045 -0.9945 0.9945 0.1045 -181.7663 254.1425)" width="286.4" height="286.4"></rect>
				</defs>
				<clipPath id="SVGID_00000018198804571387432000000008414498081517155490_">
					<use xlink:href="#SVGID_00000176036790611666665530000011881526527768800945_" style="overflow:visible;"></use>
				</clipPath>
				<g style="clip-path:url(#SVGID_00000018198804571387432000000008414498081517155490_);">
					<path class="st3" d="M62.5,275.3c1.2-1.2,1.8-2.6,1.8-4.2s-0.6-3-1.8-4.1c-1.2-1.2-2.6-1.7-4.3-1.7s-3.1,0.6-4.2,1.7       c-1.2,1.1-1.7,2.5-1.7,4.1s0.6,3,1.7,4.2c1.2,1.1,2.6,1.7,4.2,1.7C59.9,277,61.4,276.4,62.5,275.3 M48.6,262.5       c2.2-2.4,5-3.5,8.3-3.5c3.5,0,6.3,1.4,7,3.5v-3.1h6.9v15.2c0,1.9,0.5,2.6,1.7,2.6c0.3,0,0.7,0,1.2-0.1v5.8       c-0.7,0.2-1.8,0.4-3.1,0.4c-1.5,0-2.8-0.3-3.8-0.8c-1.1-0.7-1.8-1.5-2.1-2.5c-1.5,2.3-4.1,3.4-7.8,3.4c-3.3,0-6.1-1.2-8.3-3.5       c-2.2-2.4-3.3-5.3-3.3-8.7C45.3,267.7,46.4,264.8,48.6,262.5"></path>
				</g>
			</g>
		</g>
		<g>
			<g>
				<defs>
					
						<rect id="SVGID_00000075164741347903618570000009112458584585882251_" x="-93" y="84.8" transform="matrix(0.1045 -0.9945 0.9945 0.1045 -181.7663 254.1425)" width="286.4" height="286.4"></rect>
				</defs>
				<clipPath id="SVGID_00000168099515325347405770000000029787374862185653_">
					<use xlink:href="#SVGID_00000075164741347903618570000009112458584585882251_" style="overflow:visible;"></use>
				</clipPath>
				<g style="clip-path:url(#SVGID_00000168099515325347405770000000029787374862185653_);">
					<path class="st3" d="M76.8,282.9v-23.5h6.9v3.2c1.1-2.4,3.6-3.7,6.8-3.7c0.5,0,1.1,0,1.8,0.1v6.5c-0.7-0.1-1.5-0.2-2.3-0.2       c-4,0-6.3,2.2-6.3,6.1v11.5H76.8z"></path>
				</g>
			</g>
		</g>
		<g>
			<g>
				<path class="st3" d="M97.3,275c1.3,1.5,3.8,2.6,6.4,2.6c2.4,0,3.5-0.7,3.5-1.9c0-0.5-0.3-0.8-0.8-1.1c-0.5-0.3-1.4-0.6-2.8-0.9      c-1.1-0.2-2.1-0.5-3.2-0.9c-3.6-1.3-5.4-3.4-5.4-6.5c0-2.4,0.9-4.2,2.7-5.5c1.8-1.4,3.9-2,6.5-2c3.3,0,6,1,8.1,3l-3.3,4.6      c-1.3-1.2-2.9-1.7-4.9-1.7c-1.5,0-2.3,0.6-2.3,1.5c0,0.6,0.2,0.9,1,1.3c0.9,0.4,2.8,0.7,5.5,1.6c3.9,1.3,5.8,3.5,5.8,6.7      c0,4.8-3.4,7.9-10.3,7.9c-4.6,0-8-1.4-10.3-4.2L97.3,275z"></path>
			</g>
		</g>
	</g>
</g>
</svg>
