<?xml version="1.0" encoding="UTF-8"?>
<svg xmlns="http://www.w3.org/2000/svg" width="90.037" height="74.751" viewBox="0 0 90.037 74.751">
  <g id="corporate_icon" transform="translate(-1193.28 -726.346)">
    <g id="Group_162332" data-name="Group 162332" transform="translate(1193.28 726.346)">
      <path id="Path_83378" data-name="Path 83378" d="M605.233,71.2H580.662V65.87a6.942,6.942,0,0,0-6.93-6.939H550.3a6.942,6.942,0,0,0-6.929,6.939V71.2H518.8A1.8,1.8,0,0,0,517,73v16.73c0,1.734,1.039,3.241,2.807,4.55v31.06a8.347,8.347,0,0,0,8.331,8.344h67.759a8.347,8.347,0,0,0,8.332-8.344V94.279c1.768-1.309,2.807-2.815,2.807-4.551V73A1.8,1.8,0,0,0,605.233,71.2Zm-58.26-5.327a3.335,3.335,0,0,1,3.326-3.335h23.433a3.336,3.336,0,0,1,3.327,3.335V71.2H546.973Zm56.458,23.859c0,2.647-11.158,7.635-35.174,8.517a1.124,1.124,0,0,0-1.086,1.116v1.364a1.115,1.115,0,0,0,1.154,1.12c10.563-.408,24.085-1.973,32.3-5.552v29.044a4.756,4.756,0,0,1-4.742,4.742H528.135a4.729,4.729,0,0,1-4.728-4.729V96.293c8.2,3.575,21.71,5.141,32.3,5.553a1.115,1.115,0,0,0,1.154-1.12V99.363a1.124,1.124,0,0,0-1.086-1.117c-24.015-.883-35.173-5.871-35.173-8.517V74.8h82.831Z" transform="translate(-516.997 -58.931)" fill="#0f253d"></path>
      <circle id="Ellipse_9427" data-name="Ellipse 9427" cx="3.47" cy="3.47" r="3.47" transform="translate(41.549 37.827)" fill="#ff0046"></circle>
    </g>
  </g>
</svg>
