<?xml version="1.0" encoding="UTF-8"?>
<svg xmlns="http://www.w3.org/2000/svg" xmlns:xlink="http://www.w3.org/1999/xlink" id="Layer_1" data-name="Layer 1" viewBox="0 0 1255 1187">
  <defs>
    <style>.cls-1,.cls-2{fill:none;}.cls-2{stroke:#d8d8d8;stroke-miterlimit:10;opacity:0.32;}.cls-3{clip-path:url(#clip-path);}.cls-4{opacity:0.12;}.cls-5{clip-path:url(#clip-path-2);}.cls-6{fill:#fff;}.cls-7{fill:#fd0e33;}.cls-8{fill:#24344b;}.cls-9{fill:#4836ce;}</style>
    <clipPath id="clip-path">
      <polygon class="cls-1" points="-338.04 -1.59 1306.38 -1.59 1531.75 1662.42 -936.64 2023.5 -338.04 -1.59"></polygon>
    </clipPath>
    <clipPath id="clip-path-2">
      <polygon class="cls-1" points="-93.02 923.24 317.54 -282.4 1531.03 125.66 1120.47 1331.3 -93.02 923.24"></polygon>
    </clipPath>
  </defs>
  <path class="cls-2" d="M1318.54,731.16C1431,400.73,1252.66,42.21,920-69.76,587.32-181.53,226.52-4.33,114,326.1S179.87,1015.24,512.57,1127c332.64,112,693.5-65.42,806-395.85"></path>
  <g class="cls-3">
    <g class="cls-4">
      <g class="cls-4">
        <g class="cls-4">
          <g class="cls-5">
            <g class="cls-4">
              <path class="cls-6" d="M923.55-76.45A641.28,641.28,0,0,0,241.37,103.13,632.69,632.69,0,0,0,295.07,999a641.77,641.77,0,0,0,901.63-53.08,633.07,633.07,0,0,0-53.76-896A635.76,635.76,0,0,0,923.55-76.45M513.74,1127.22a637.37,637.37,0,0,1-368.92-320.8,634.09,634.09,0,0,1,95.09-704.6,644.05,644.05,0,0,1,904.44-53.33,635.74,635.74,0,0,1,148.84,194,634.09,634.09,0,0,1-95.09,704.6,642.54,642.54,0,0,1-684.36,180.14"></path>
            </g>
          </g>
        </g>
      </g>
    </g>
    <path class="cls-7" d="M418.26,1110.49a27.64,27.64,0,0,1-14.16-3.34A669.14,669.14,0,0,1,242.55,985.26a27.83,27.83,0,0,1,.65-39.53,28.22,28.22,0,0,1,39.76.61A613,613,0,0,0,430.89,1058a27.93,27.93,0,0,1-12.63,52.47"></path>
    <path class="cls-8" d="M56.22,99.94A25.15,25.15,0,0,1,41,95.63a25.48,25.48,0,0,1-7.07-35.52A859.14,859.14,0,0,1,149.46-77.64a25.85,25.85,0,0,1,36.4.58,25.52,25.52,0,0,1-.51,36.21A799.69,799.69,0,0,0,76.72,88.62a26,26,0,0,1-20.5,11.32"></path>
    <path class="cls-9" d="M899.65,915.1a33.56,33.56,0,0,1,14-45.52A412.39,412.39,0,0,0,1133.42,517a33.82,33.82,0,0,1,67.6,2,479.44,479.44,0,0,1-255.6,410,33.89,33.89,0,0,1-45.77-13.82"></path>
    <path class="cls-9" d="M40.55,95.58a25.48,25.48,0,0,1-7.41-35.42,26,26,0,0,1,35.71-7.33A25.52,25.52,0,0,1,55.61,99.74a26.8,26.8,0,0,1-15.06-4.16"></path>
    <path class="cls-8" d="M477,127.91A33.56,33.56,0,0,1,490.9,82.39,485.81,485.81,0,0,1,977,100.4a33.49,33.49,0,0,1,10.48,46.41,34.11,34.11,0,0,1-46.73,10.47A417.89,417.89,0,0,0,522.62,141.7,33.85,33.85,0,0,1,477,127.91"></path>
    <path class="cls-9" d="M456.4,864.7A33.91,33.91,0,0,1,503,854h0a33.58,33.58,0,0,1,10.82,46.31,33.91,33.91,0,0,1-58.55-2,33.19,33.19,0,0,1,1.13-33.59"></path>
    <path class="cls-9" d="M59.09,617.47a32.51,32.51,0,0,1,44.54-10.23h0A32.07,32.07,0,0,1,114,651.5a32.5,32.5,0,0,1-44.54,10.23,32,32,0,0,1-10.33-44.26"></path>
    <path class="cls-7" d="M673.69,949a33.87,33.87,0,1,1,4,17.08,32.41,32.41,0,0,1-4-17.08"></path>
    <path class="cls-9" d="M705.05,58.55a33.77,33.77,0,1,1,4,16.45,33.68,33.68,0,0,1-4-16.45"></path>
    <path class="cls-7" d="M1132.77,515.13a33.73,33.73,0,1,1,4,17,34.72,34.72,0,0,1-4-17"></path>
    <path class="cls-7" d="M218.09,129.71a27.83,27.83,0,0,1-2.73-39.47A28.26,28.26,0,0,1,255,87.56a27.87,27.87,0,0,1-17.69,48.93,27.14,27.14,0,0,1-19.25-6.78"></path>
    <path class="cls-9" d="M359,2.08a27.89,27.89,0,0,1,9.92-38.3,28.24,28.24,0,0,1,38.53,9.89,27.79,27.79,0,0,1-9.89,38.21,26.28,26.28,0,0,1-13.45,3.83A27.65,27.65,0,0,1,359,2.08"></path>
    <path class="cls-8" d="M98.67,320.49A27.78,27.78,0,0,1,99.82,281a28.25,28.25,0,0,1,39.79,1.15,28,28,0,0,1-40.94,38.32"></path>
    <path class="cls-7" d="M1030.56,610.28c57.88-170-33.9-354.53-205.07-412.15S468.61,231.8,410.74,401.84,444.61,756.46,615.81,814s356.88-33.67,414.75-203.7"></path>
  </g>
  <path class="cls-6" d="M588.2,544.8l1-82.2,24.5.3-.1,10.3c3.2-7.1,11.6-11.9,21.6-11.8,11.2.1,18.7,4.6,22.3,13.3,4.7-8.6,13.8-12.9,27.4-12.7,18.5.2,28.9,13.1,28.6,34.4l-.3,20.7c-.1,6.4,1.2,8.7,5.3,8.7H720l1-.2-.2,20.5a33.78,33.78,0,0,1-10.5,1c-14.6-.2-21.7-8.1-21.5-23.7l.3-24.5c.1-9.6-4.1-15.5-11.8-15.6-7.9-.1-13.5,6.5-13.7,16.1l-.6,46.1-24.4-.3.6-47c.1-9.6-4.2-15.5-12.1-15.6s-13.7,6.5-13.8,16.1l-.6,46.1Z"></path>
  <path class="cls-6" d="M579.5,475.2l-15.6,15a24.86,24.86,0,0,0-18.9-8.7,20.75,20.75,0,0,0-21.4,20.3v1a20.8,20.8,0,0,0,20,21.6h.9a25.06,25.06,0,0,0,19.1-8.3l15.2,15.4a47.4,47.4,0,0,1-66.9,2.1,43,43,0,0,1,.7-61.9,45.73,45.73,0,0,1,32.6-12.2,44.67,44.67,0,0,1,34.3,15.7"></path>
  <path class="cls-6" d="M737.1,475.3a38.86,38.86,0,0,1,29.5-12c12.5.2,22.1,5.3,24.5,12.5l.1-10.7,24.5.3-.6,53.3c-.1,6.5,1.5,9.2,6,9.2a9.08,9.08,0,0,0,2.3-.3l-.2,20.2A24.08,24.08,0,0,1,814,549a27,27,0,0,1-13.4-3.1,16.85,16.85,0,0,1-7.3-8.9c-5.5,7.9-14.6,11.7-27.5,11.6A39.33,39.33,0,0,1,736.6,536a43.44,43.44,0,0,1-11.3-30.6,41.39,41.39,0,0,1,11.8-30.1m48.5,45.5a19.43,19.43,0,0,0,6.6-14.6,18.87,18.87,0,0,0-6.2-14.6,20.67,20.67,0,0,0-15.2-6.2,20.41,20.41,0,0,0-15,5.8,19.29,19.29,0,0,0-6.2,14.4,19.68,19.68,0,0,0,5.9,14.7,21.11,21.11,0,0,0,14.9,6.1,20.85,20.85,0,0,0,15.2-5.6"></path>
  <path class="cls-6" d="M906.4,479.2l-15.6,15a24.86,24.86,0,0,0-18.9-8.7,20.75,20.75,0,0,0-21.4,20.3v1a20.8,20.8,0,0,0,20,21.6h.9a25.06,25.06,0,0,0,19.1-8.3l15.2,15.4a47.4,47.4,0,0,1-66.9,2.1,43,43,0,0,1,.7-61.9,45.73,45.73,0,0,1,32.6-12.2,44.67,44.67,0,0,1,34.3,15.7"></path>
  <path class="cls-6" d="M914.9,527.7a13.37,13.37,0,0,1,18.8.1l.1.1a12.68,12.68,0,0,1,.4,18l-.6.6a13.37,13.37,0,0,1-18.8-.1l-.1-.1a13,13,0,0,1,0-18.4l.2-.2"></path>
</svg>
