<?xml version="1.0" encoding="UTF-8"?>
<svg xmlns="http://www.w3.org/2000/svg" width="430.705" height="233.043" viewBox="0 0 430.705 233.043">
  <g id="global_coverage_icon" transform="translate(-836.322 -134.948)">
    <circle id="Ellipse_9433" data-name="Ellipse 9433" cx="9.482" cy="9.482" r="9.482" transform="translate(836.322 237.595) rotate(-13.283)" fill="#fd0e33"></circle>
    <g id="Group_162321" data-name="Group 162321" transform="translate(839.032 157.553)">
      <path id="Path_83352" data-name="Path 83352" d="M1069.3,274.994c-19.422,0-41.04-.048-62.1-.1-26.507-.059-53.921-.118-76.557-.085l-.017-11.014c22.662-.035,50.083.025,76.6.084,26.827.061,54.564.121,77.5.085l.019,11.014C1079.8,274.991,1074.638,274.994,1069.3,274.994Z" transform="translate(-797.368 -100.635)" fill="#fff"></path>
      <path id="Path_83353" data-name="Path 83353" d="M889.032,293.962l-8.205,0c-21.252,0-35.248-11.048-40.475-31.95-2.321-9.288-2.783-23.744-1.29-39.885a1.844,1.844,0,0,1,2.02-1.659l7.3.737a1.843,1.843,0,0,1,1.644,2.007c-1.354,14.723-.986,28.127,1.013,36.129,3.972,15.885,13.717,23.608,29.79,23.608l8.212,0Z" transform="translate(-838.201 -119.779)" fill="#fff"></path>
      <path id="Path_83354" data-name="Path 83354" d="M1244.08,324.806h-39.65V313.792h39.65a9.231,9.231,0,0,0,9.23-9.232V264.91c0-7.082-13.2-17.921-33.625-27.613-20.821-9.878-47.648-18.049-70.014-21.327a5.5,5.5,0,0,1-2.991-1.455c-39.068-37.062-68.056-52.875-96.932-52.875h-71.08c-26.381,0-44.859,14.637-68.252,33.168-8.258,6.543-16.8,13.309-26.6,20.218a5.508,5.508,0,0,1-3.168,1H865.737a13.406,13.406,0,0,0-12.562,8.675,1.851,1.851,0,0,1-2.165,1.175l-7.158-1.749a1.842,1.842,0,0,1-1.321-2.356,24.39,24.39,0,0,1,23.207-16.759H878.9c8.963-6.388,16.946-12.712,24.68-18.84,24.079-19.075,44.875-35.548,75.09-35.548h71.08c31.63,0,62.573,16.377,103.251,54.706a273.837,273.837,0,0,1,71.408,22.013c18.209,8.64,39.918,22.171,39.918,37.564v39.65A20.246,20.246,0,0,1,1244.08,324.806Z" transform="translate(-836.33 -150.627)" fill="#fff"></path>
      <path id="Path_83355" data-name="Path 83355" d="M1075.6,227.71H936.869a15.8,15.8,0,0,1-11.246-4.66l-15.2-15.2a15.9,15.9,0,0,1,2.4-24.464l23.113-15.476a15.862,15.862,0,0,1,8.85-2.689h93.822a15.937,15.937,0,0,1,10.153,3.662l36.994,30.671a15.908,15.908,0,0,1-4.267,27.023h0A15.866,15.866,0,0,1,1075.6,227.71ZM944.787,176.239a4.885,4.885,0,0,0-2.724.828l-23.113,15.475a4.892,4.892,0,0,0-.737,7.525l15.2,15.2a4.862,4.862,0,0,0,3.459,1.433H1075.6a4.873,4.873,0,0,0,1.811-.347h0a4.893,4.893,0,0,0,1.312-8.312l-36.991-30.671a4.908,4.908,0,0,0-3.124-1.127Z" transform="translate(-808.354 -144.178)" fill="#fff"></path>
      <path id="Path_83356" data-name="Path 83356" d="M1080,324.957a46.3,46.3,0,1,1,46.3-46.3A46.35,46.35,0,0,1,1080,324.957Zm0-81.582a35.284,35.284,0,1,0,35.285,35.284A35.323,35.323,0,0,0,1080,243.375Z" transform="translate(-751.835 -114.52)" fill="#fff"></path>
      <path id="Path_83357" data-name="Path 83357" d="M916.532,324.957a46.3,46.3,0,1,1,46.3-46.3A46.351,46.351,0,0,1,916.532,324.957Zm0-81.582a35.284,35.284,0,1,0,35.284,35.284A35.324,35.324,0,0,0,916.532,243.375Z" transform="translate(-824.05 -114.52)" fill="#fff"></path>
    </g>
    <path id="Path_83358" data-name="Path 83358" d="M1015.729,168.567H944.794a5.507,5.507,0,0,1-4.7-8.372l13.767-22.6a5.508,5.508,0,0,1,4.7-2.643h43.4a5.506,5.506,0,0,1,4.7,2.643l13.767,22.6a5.507,5.507,0,0,1-4.7,8.372ZM954.6,157.553h51.33l-7.059-11.59H961.656Z" transform="translate(45.487 0)" fill="#fff"></path>
    <rect id="Rectangle_147759" data-name="Rectangle 147759" width="11.014" height="51.471" transform="translate(997.506 184.108)" fill="#fff"></rect>
  </g>
</svg>
