<?xml version="1.0" encoding="UTF-8"?>
<svg xmlns="http://www.w3.org/2000/svg" width="85.111" height="85.111" viewBox="0 0 85.111 85.111">
  <g id="healthcare_icon" transform="translate(-1595.092 -719.389)">
    <path id="Path_83377" data-name="Path 83377" d="M1048.649,78.556H1026.92V56.828a5.727,5.727,0,0,0-5.727-5.727h-18.747a5.727,5.727,0,0,0-5.727,5.727v5.978a.7.7,0,0,0,.7.7h2.153a.7.7,0,0,0,.7-.7V56.828a2.173,2.173,0,0,1,2.173-2.173h18.747a2.173,2.173,0,0,1,2.173,2.172V82.11h25.282a2.173,2.173,0,0,1,2.172,2.172V103.03a2.172,2.172,0,0,1-2.172,2.172h-25.282v25.282a2.173,2.173,0,0,1-2.173,2.173h-18.747a2.173,2.173,0,0,1-2.173-2.173V105.2H974.992a2.174,2.174,0,0,1-2.174-2.173V84.283a2.174,2.174,0,0,1,2.174-2.173h25.281V74.379a.7.7,0,0,0-.7-.7H997.42a.7.7,0,0,0-.7.7v4.177H974.992a5.727,5.727,0,0,0-5.728,5.727V103.03a5.726,5.726,0,0,0,5.727,5.726h21.729v21.729a5.726,5.726,0,0,0,5.726,5.727h18.748a5.727,5.727,0,0,0,5.727-5.727V108.756h21.728a5.726,5.726,0,0,0,5.726-5.726V84.282A5.727,5.727,0,0,0,1048.649,78.556Z" transform="translate(625.828 668.288)" fill="#0f253d"></path>
    <circle id="Ellipse_9427" data-name="Ellipse 9427" cx="3.423" cy="3.423" r="3.423" transform="translate(1620.784 733.459)" fill="#ff0046"></circle>
  </g>
</svg>
