<?xml version="1.0" encoding="UTF-8"?>
<svg xmlns="http://www.w3.org/2000/svg" width="200" height="147" viewBox="0 0 200 147">
  <defs>
    <clipPath id="d960a">
      <path d="M.372 147V.247h199.256V147z"></path>
    </clipPath>
  </defs>
  <g>
    <g>
      <g></g>
      <g clip-path="url(#d960a)">
        <path fill="#4836ce" d="M147.125 73.624c0 40.525-32.852 73.376-73.376 73.376C33.225 147 .372 114.149.372 73.624.372 33.1 33.225.25 73.75.25c40.524 0 73.376 32.85 73.376 73.375"></path>
      </g>
      <g clip-path="url(#d960a)">
        <path fill="#fff" d="M26.509 109.575c.492.494 1.103.75 1.832.75.73 0 1.34-.256 1.833-.75.491-.512.75-1.122.75-1.851 0-.729-.259-1.34-.75-1.832-.492-.514-1.103-.769-1.833-.769-.729 0-1.34.255-1.832.769-.493.492-.748 1.103-.748 1.832 0 .73.255 1.359.748 1.851M32.242 104c1.084 1.004 1.617 2.246 1.617 3.724 0 1.477-.533 2.72-1.617 3.743-1.083 1.006-2.383 1.517-3.901 1.517-1.536 0-2.837-.51-3.92-1.517-1.064-1.024-1.597-2.266-1.597-3.743 0-1.478.533-2.72 1.596-3.724 1.084-1.024 2.385-1.536 3.92-1.536 1.519 0 2.82.512 3.902 1.536"></path>
      </g>
      <g clip-path="url(#d960a)">
        <path fill="#fff" d="M35.824 112.688v-7.27h-1.635v-2.659h1.635v-.277c0-1.439.395-2.463 1.164-3.071.57-.496 1.497-.731 2.737-.731a8.2 8.2 0 0 1 1.182.097v2.444c-.176-.058-.472-.098-.886-.098-.946 0-1.36.335-1.36 1.183v.453h1.99v2.658h-1.99v7.271z"></path>
      </g>
      <g clip-path="url(#d960a)">
        <path fill="#fff" d="M47.683 105.417h-1.3v-2.659h1.3v-3.803h2.856v3.803h2.207v2.66h-2.207v3.546c0 .946.374 1.32 1.261 1.32.158 0 .414-.02.75-.078v2.6c-.394.098-.869.138-1.44.138-2.285 0-3.427-1.182-3.427-3.546z"></path>
      </g>
      <g clip-path="url(#d960a)">
        <path fill="#fff" d="M54.418 112.688V98.956h2.935v5.005c.394-.867 1.458-1.42 2.778-1.42 2.346 0 3.685 1.538 3.685 4.118v2.502c0 .769.158 1.045.65 1.045.1 0 .275-.02.296-.02v2.483c-.276.099-.69.138-1.261.138-1.754 0-2.622-.945-2.622-2.838v-2.954c0-1.164-.61-1.874-1.692-1.874-1.084 0-1.834.808-1.834 1.972v5.575z"></path>
      </g>
      <g clip-path="url(#d960a)">
        <path fill="#fff" d="M68.679 106.581c.078-.926 1.123-1.656 2.404-1.656 1.182 0 2.147.73 2.147 1.656zm-2.975 1.201c0 1.557.493 2.798 1.497 3.744 1.005.926 2.305 1.4 3.94 1.4 1.676 0 3.114-.612 4.276-1.813l-1.714-1.635c-.69.65-1.497.965-2.423.965-1.557 0-2.581-.769-2.64-1.95h7.506c.02-.296.04-.612.04-.946 0-1.439-.473-2.622-1.42-3.588-.944-.964-2.166-1.456-3.683-1.456-1.557 0-2.857.471-3.862 1.438-1.005.945-1.517 2.206-1.517 3.762z"></path>
      </g>
      <g clip-path="url(#d960a)">
        <path fill="#fff" d="M81.265 114.284c.315.1.708.158 1.201.158.374 0 .65-.078.847-.216.198-.138.336-.335.414-.63l.158-.434-4.236-10.404h2.996l2.698 6.895 2.443-6.895h2.996l-4.415 11.507c-.335.848-.709 1.458-1.143 1.833-.65.57-1.536.867-2.659.867-.453 0-.887-.04-1.3-.139z"></path>
      </g>
      <g clip-path="url(#d960a)">
        <path fill="#fff" d="M94.087 106.581c.079-.926 1.124-1.656 2.404-1.656 1.182 0 2.148.73 2.148 1.656zm-2.974 1.201c0 1.557.492 2.798 1.497 3.744 1.004.926 2.305 1.4 3.94 1.4 1.676 0 3.113-.612 4.277-1.813l-1.715-1.635c-.69.65-1.497.965-2.424.965-1.556 0-2.581-.769-2.64-1.95h7.507c.02-.296.04-.612.04-.946 0-1.439-.474-2.622-1.419-3.588-.946-.964-2.168-1.456-3.685-1.456-1.557 0-2.857.471-3.862 1.438-1.004.945-1.516 2.206-1.516 3.762z"></path>
      </g>
      <g clip-path="url(#d960a)">
        <path fill="#fff" d="M109.807 109.497c.512-.494.769-1.084.769-1.773a2.3 2.3 0 0 0-.77-1.754c-.492-.493-1.103-.73-1.831-.73-.71 0-1.3.237-1.793.73-.494.472-.73 1.063-.73 1.754 0 .69.236 1.28.73 1.773.492.472 1.083.709 1.793.709.728 0 1.34-.237 1.832-.709m-5.891-5.419c.945-1.005 2.126-1.497 3.527-1.497 1.496 0 2.66.61 2.954 1.477v-1.3h2.937v6.442c0 .79.195 1.104.728 1.104.138 0 .316-.02.493-.04v2.444c-.315.099-.75.157-1.32.157-.65 0-1.203-.118-1.616-.354-.453-.296-.749-.65-.887-1.065-.65.966-1.733 1.44-3.289 1.44-1.4 0-2.582-.492-3.527-1.477-.926-1.006-1.4-2.227-1.4-3.685 0-1.439.474-2.66 1.4-3.646"></path>
      </g>
      <g clip-path="url(#d960a)">
        <path fill="#fff" d="M115.853 112.688v-9.929h2.935v1.358c.454-1.005 1.517-1.575 2.876-1.575.198 0 .455.02.768.06v2.757a5.058 5.058 0 0 0-.984-.1c-1.676 0-2.66.947-2.66 2.582v4.847z"></path>
      </g>
      <g clip-path="url(#d960a)">
        <path fill="#fff" d="M121.918 110.147c.65-.63 1.635-.63 2.266 0 .65.63.65 1.615 0 2.247-.63.63-1.616.63-2.266 0a1.57 1.57 0 0 1 0-2.247"></path>
      </g>
      <g clip-path="url(#d960a)">
        <path fill="#fff" d="M28.67 57.761v-16.3h-5.838v-5.34h17.45v5.34h-5.714v16.3z"></path>
      </g>
      <g clip-path="url(#d960a)">
        <path fill="#fff" d="M40.624 57.762V42.114h5.744v1.925c.9-1.522 2.39-2.299 4.41-2.299.34 0 1.178.095 1.333.095v5.215a8.825 8.825 0 0 0-1.551-.155c-2.733 0-4.192 1.428-4.192 3.911v6.956z"></path>
      </g>
      <g clip-path="url(#d960a)">
        <path fill="#fff" d="M62.11 52.98c1.769 0 3.26-1.398 3.26-3.043 0-1.616-1.491-2.981-3.26-2.981-1.77 0-3.26 1.365-3.26 2.981 0 1.707 1.49 3.043 3.26 3.043m-6.738-8.694c1.459-1.583 3.322-2.36 5.527-2.36 2.266 0 3.694.622 4.315 1.832v-1.645h5.62v9.221c0 1.21.31 1.646 1.148 1.646.218 0 .467-.032.745-.063v4.813c-.62.155-1.428.248-2.39.248-1.086 0-1.925-.155-2.577-.498a3.124 3.124 0 0 1-1.398-1.365c-.93 1.273-2.544 1.894-4.843 1.894-2.483 0-4.502-.776-6.054-2.328-1.522-1.553-2.297-3.478-2.297-5.744 0-2.204.745-4.099 2.204-5.65"></path>
      </g>
      <g clip-path="url(#d960a)">
        <path fill="#fff" d="M74.56 57.762V42.114h5.744v1.925c.9-1.522 2.36-2.299 4.316-2.299 3.88 0 5.992 2.454 5.992 6.77v2.731c0 1.148.25 1.646.995 1.646l.433-.031v4.876c-.559.155-1.396.247-2.483.247-3.136 0-4.688-1.645-4.688-4.905v-3.882c0-1.49-.808-2.421-2.174-2.421-1.398 0-2.39 1.025-2.39 2.515v8.476z"></path>
      </g>
      <g clip-path="url(#d960a)">
        <path fill="#fff" d="M95.83 52.018c1.118.93 2.67 1.397 4.688 1.397 1.149 0 1.74-.124 1.74-.745 0-.218-.218-.373-.685-.466-.434-.123-1.087-.248-1.987-.374-.9-.155-1.646-.34-2.297-.557-2.205-.776-3.291-2.174-3.291-4.192 0-1.77.652-3.104 1.987-4.035 1.335-.933 2.887-1.398 4.72-1.398 2.049 0 3.973.559 5.774 1.676l-2.235 3.85a7.446 7.446 0 0 0-3.726-.993c-.932 0-1.397.217-1.397.651 0 .28.124.435.373.528l1.77.311c.9.155 1.862.373 2.824.714 2.298.777 3.446 2.172 3.446 4.222 0 3.478-2.42 5.621-7.295 5.621-2.888 0-5.372-.776-7.452-2.36z"></path>
      </g>
      <g clip-path="url(#d960a)">
        <path fill="#fff" d="M109.585 63.754v-21.64h5.619v1.646c.59-1.21 2.05-1.832 4.317-1.832 2.203 0 4.066.776 5.526 2.358 1.459 1.553 2.204 3.448 2.204 5.652 0 2.235-.745 4.13-2.204 5.682-1.46 1.553-3.323 2.328-5.526 2.328-2.268 0-3.727-.62-4.317-1.832v7.638zm8.724-10.836c1.77 0 3.26-1.335 3.26-2.98 0-1.615-1.49-2.98-3.26-2.98-1.77 0-3.26 1.365-3.26 2.98 0 1.645 1.49 2.98 3.26 2.98"></path>
      </g>
      <g clip-path="url(#d960a)">
        <path fill="#fff" d="M139.888 52.08c.653-.59.963-1.304.963-2.142 0-.839-.31-1.553-.963-2.142-.652-.591-1.397-.901-2.266-.901-1.77 0-3.229 1.398-3.229 3.043 0 1.645 1.46 3.043 3.229 3.043.869 0 1.614-.311 2.266-.9m4.005-7.98c1.738 1.613 2.609 3.57 2.609 5.837 0 2.266-.87 4.222-2.609 5.868-1.738 1.614-3.819 2.422-6.271 2.422-2.454 0-4.565-.808-6.303-2.422-1.708-1.646-2.577-3.602-2.577-5.868 0-2.267.869-4.224 2.577-5.837 1.738-1.647 3.85-2.453 6.303-2.453 2.452 0 4.533.806 6.271 2.453"></path>
      </g>
      <g clip-path="url(#d960a)">
        <path fill="#fff" d="M148.675 57.762V42.114h5.744v1.925c.9-1.522 2.39-2.299 4.41-2.299.34 0 1.178.095 1.333.095v5.215a8.825 8.825 0 0 0-1.551-.155c-2.733 0-4.192 1.428-4.192 3.911v6.956z"></path>
      </g>
      <g clip-path="url(#d960a)">
        <path fill="#fff" d="M165.412 47.112h-2.142v-4.998h2.142v-5.992h5.744v5.992h3.229v4.998h-3.23v4.255c0 1.24.497 1.77 1.709 1.77a4.85 4.85 0 0 0 1.055-.126v4.876c-.714.155-1.583.247-2.67.247-3.881 0-5.837-1.987-5.837-5.96z"></path>
      </g>
      <g clip-path="url(#d960a)">
        <path fill="#fff" d="M34.383 71.245l2.607 6.707h-5.216zm-5.31 14.096l1.15-2.826h8.32l1.118 2.826h6.24L37.084 63.7h-5.402l-8.819 21.64z"></path>
      </g>
      <g clip-path="url(#d960a)">
        <path fill="#fff" d="M49.379 86.147c1.46.84 2.889 1.273 4.254 1.273 1.21 0 2.174-.217 2.888-.651.931-.529 1.397-1.522 1.397-2.981v-.062c-.652 1.118-2.174 1.677-4.565 1.677-2.203 0-4.066-.776-5.526-2.298-1.46-1.52-2.204-3.384-2.204-5.589 0-2.204.745-4.098 2.204-5.65 1.46-1.584 3.323-2.36 5.526-2.36 2.267 0 3.727.621 4.317 1.832v-1.646h5.619v13.04c0 3.447-.715 5.899-2.825 7.545-1.552 1.273-3.508 1.894-5.868 1.894-3.199 0-5.806-.714-7.793-2.112zm5.155-5.68c1.77 0 3.26-1.305 3.26-2.95 0-1.615-1.49-2.982-3.26-2.982-1.77 0-3.26 1.367-3.26 2.981 0 1.646 1.428 2.95 3.26 2.95"></path>
      </g>
      <g clip-path="url(#d960a)">
        <path fill="#fff" d="M69.096 86.147c1.46.84 2.887 1.273 4.254 1.273 1.21 0 2.174-.217 2.888-.651.931-.529 1.397-1.522 1.397-2.981v-.062c-.652 1.118-2.174 1.677-4.565 1.677-2.205 0-4.067-.776-5.526-2.298-1.46-1.52-2.205-3.384-2.205-5.589 0-2.204.746-4.098 2.205-5.65 1.46-1.584 3.321-2.36 5.526-2.36 2.267 0 3.727.621 4.316 1.832v-1.646h5.62v13.04c0 3.447-.715 5.899-2.825 7.545-1.552 1.273-3.51 1.894-5.87 1.894-3.197 0-5.804-.714-7.791-2.112zm5.155-5.68c1.77 0 3.26-1.305 3.26-2.95 0-1.615-1.49-2.982-3.26-2.982-1.77 0-3.26 1.367-3.26 2.981 0 1.646 1.428 2.95 3.26 2.95"></path>
      </g>
      <g clip-path="url(#d960a)">
        <path fill="#fff" d="M85.708 85.34V69.694h5.744v1.925c.9-1.522 2.39-2.299 4.409-2.299.341 0 1.179.095 1.334.095v5.215a8.825 8.825 0 0 0-1.552-.155c-2.732 0-4.192 1.428-4.192 3.911v6.956z"></path>
      </g>
      <g clip-path="url(#d960a)">
        <path fill="#fff" d="M103.717 75.59c.092-1.024 1.428-1.861 3.042-1.861 1.49 0 2.732.869 2.732 1.862zm-5.775 1.988c0 2.453.806 4.409 2.452 5.9 1.646 1.459 3.788 2.203 6.458 2.203 2.7 0 5-.962 6.924-2.887l-3.26-3.104c-.9.806-2.017 1.21-3.353 1.21-2.018 0-3.384-.714-3.478-1.832h11.426c.063-.559.093-1.148.093-1.74 0-2.264-.775-4.158-2.36-5.68-1.583-1.552-3.601-2.329-6.085-2.329-2.577 0-4.688.746-6.334 2.236-1.645 1.46-2.483 3.415-2.483 5.868z"></path>
      </g>
      <g clip-path="url(#d960a)">
        <path fill="#fff" d="M120.327 86.147c1.46.84 2.889 1.273 4.254 1.273 1.211 0 2.174-.217 2.888-.651.932-.529 1.397-1.522 1.397-2.981v-.062c-.652 1.118-2.174 1.677-4.565 1.677-2.203 0-4.066-.776-5.526-2.298-1.459-1.52-2.204-3.384-2.204-5.589 0-2.204.745-4.098 2.204-5.65 1.46-1.584 3.323-2.36 5.526-2.36 2.268 0 3.727.621 4.317 1.832v-1.646h5.619v13.04c0 3.447-.714 5.899-2.825 7.545-1.552 1.273-3.508 1.894-5.868 1.894-3.198 0-5.806-.714-7.793-2.112zm5.155-5.68c1.77 0 3.26-1.305 3.26-2.95 0-1.615-1.49-2.982-3.26-2.982-1.77 0-3.26 1.367-3.26 2.981 0 1.646 1.428 2.95 3.26 2.95"></path>
      </g>
      <g clip-path="url(#d960a)">
        <path fill="#fff" d="M145.199 80.559c1.77 0 3.26-1.398 3.26-3.043 0-1.615-1.49-2.98-3.26-2.98-1.77 0-3.26 1.365-3.26 2.98 0 1.707 1.49 3.043 3.26 3.043m-6.738-8.694c1.46-1.583 3.323-2.36 5.526-2.36 2.267 0 3.695.622 4.317 1.833v-1.646h5.618v9.221c0 1.21.312 1.646 1.15 1.646.217 0 .466-.031.745-.063v4.814c-.622.155-1.428.247-2.391.247-1.087 0-1.925-.155-2.576-.498a3.117 3.117 0 0 1-1.398-1.365c-.932 1.273-2.546 1.894-4.843 1.894-2.484 0-4.502-.776-6.055-2.328-1.521-1.553-2.296-3.478-2.296-5.744 0-2.204.744-4.099 2.203-5.65"></path>
      </g>
      <g clip-path="url(#d960a)">
        <path fill="#fff" d="M158.053 74.692h-2.142v-4.999h2.142v-5.992h5.743v5.992h3.23v4.999h-3.23v4.254c0 1.24.497 1.77 1.709 1.77.279 0 .651-.033 1.055-.126v4.876c-.714.155-1.583.248-2.67.248-3.881 0-5.837-1.987-5.837-5.962z"></path>
      </g>
      <g clip-path="url(#d960a)">
        <path fill="#fff" d="M179.352 79.66c.652-.59.963-1.304.963-2.142 0-.84-.31-1.553-.963-2.142-.652-.592-1.397-.902-2.266-.902-1.77 0-3.23 1.398-3.23 3.044 0 1.644 1.46 3.042 3.23 3.042.869 0 1.614-.311 2.266-.9m4.005-7.98c1.738 1.613 2.609 3.57 2.609 5.838 0 2.266-.87 4.221-2.609 5.867-1.738 1.615-3.82 2.422-6.271 2.422-2.454 0-4.565-.807-6.303-2.422-1.708-1.646-2.577-3.601-2.577-5.867 0-2.268.869-4.225 2.577-5.838 1.738-1.647 3.85-2.453 6.303-2.453 2.452 0 4.533.806 6.271 2.453"></path>
      </g>
      <g clip-path="url(#d960a)">
        <path fill="#fff" d="M188.139 85.34V69.694h5.744v1.925c.9-1.522 2.39-2.299 4.409-2.299.341 0 1.18.095 1.334.095v5.215a8.825 8.825 0 0 0-1.552-.155c-2.732 0-4.191 1.428-4.191 3.911v6.956z"></path>
      </g>
    </g>
  </g>
</svg>
