<?xml version="1.0" encoding="UTF-8"?>
<svg xmlns="http://www.w3.org/2000/svg" xmlns:xlink="http://www.w3.org/1999/xlink" width="149.478" height="29.786" viewBox="0 0 149.478 29.786">
  <defs>
    <clipPath id="clip-path">
      <path id="Path_8" data-name="Path 8" d="M0-18.779H149.478V-48.565H0Z" transform="translate(0 48.565)" fill="none"></path>
    </clipPath>
  </defs>
  <g id="whychoose_logo" transform="translate(0 48.565)">
    <g id="Group_162253" data-name="Group 162253" transform="translate(0 -48.565)" clip-path="url(#clip-path)">
      <g id="Group_162248" data-name="Group 162248" transform="translate(30.515 0.28)">
        <path id="Path_3" data-name="Path 3" d="M0-18.145V-46.309H8.327v3.521c1.062-2.459,3.911-4.136,7.321-4.136,3.8,0,6.37,1.509,7.656,4.471,1.565-2.961,4.638-4.471,9.277-4.471,6.315,0,9.891,4.359,9.891,11.679v7.1c0,2.18.448,2.962,1.844,2.962h.5l.335-.056V-18.2a11.431,11.431,0,0,1-3.576.392c-4.974,0-7.433-2.683-7.433-8.049v-8.381c0-3.3-1.454-5.31-4.08-5.31-2.681,0-4.582,2.29-4.582,5.587v15.816H17.155V-34.238c0-3.3-1.508-5.31-4.19-5.31s-4.638,2.29-4.638,5.587v15.816Z" transform="translate(0 46.925)" fill="#fff"></path>
      </g>
      <g id="Group_162249" data-name="Group 162249" transform="translate(0 0)">
        <path id="Path_4" data-name="Path 4" d="M-17.193-3.312l-5.254,5.2a8.548,8.548,0,0,0-6.482-2.907,7.127,7.127,0,0,0-7.208,7.377,7.113,7.113,0,0,0,7.208,7.321,8.549,8.549,0,0,0,6.482-2.907l5.254,5.2A15.19,15.19,0,0,1-28.928,21.22a15.487,15.487,0,0,1-11.065-4.247A14.132,14.132,0,0,1-44.464,6.356,14.13,14.13,0,0,1-39.993-4.262a15.534,15.534,0,0,1,11.065-4.3A15.189,15.189,0,0,1-17.193-3.312" transform="translate(44.464 8.566)" fill="#f03"></path>
      </g>
      <g id="Group_162250" data-name="Group 162250" transform="translate(76.958 0.392)">
        <path id="Path_5" data-name="Path 5" d="M-13.035-12.367a6.733,6.733,0,0,0,2.18-5.03,6.527,6.527,0,0,0-2.18-4.974,7.033,7.033,0,0,0-5.2-2.067,6.873,6.873,0,0,0-5.086,2.067A6.622,6.622,0,0,0-25.385-17.4a6.834,6.834,0,0,0,2.067,5.03,7.048,7.048,0,0,0,5.086,2.011,7.213,7.213,0,0,0,5.2-2.011M-29.744-27.735a13.182,13.182,0,0,1,10-4.247c4.247,0,7.545,1.733,8.382,4.192v-3.689h8.327v18.272c0,2.236.559,3.13,2.068,3.13a5.233,5.233,0,0,0,.783-.112v6.929a8.622,8.622,0,0,1-3.13.448A9.268,9.268,0,0,1-7.894-3.817a5.855,5.855,0,0,1-2.515-3.017c-1.844,2.739-4.918,4.08-9.332,4.08a13.33,13.33,0,0,1-10-4.192A14.847,14.847,0,0,1-33.712-17.4a14.578,14.578,0,0,1,3.968-10.339" transform="translate(33.712 31.982)" fill="#fff"></path>
      </g>
      <g id="Group_162251" data-name="Group 162251" transform="translate(111.318 0)">
        <path id="Path_6" data-name="Path 6" d="M-17.193-3.312l-5.254,5.2a8.548,8.548,0,0,0-6.482-2.907,7.127,7.127,0,0,0-7.208,7.377,7.113,7.113,0,0,0,7.208,7.321,8.549,8.549,0,0,0,6.482-2.907l5.254,5.2A15.19,15.19,0,0,1-28.928,21.22a15.487,15.487,0,0,1-11.065-4.247A14.132,14.132,0,0,1-44.464,6.356,14.13,14.13,0,0,1-39.993-4.262a15.534,15.534,0,0,1,11.065-4.3A15.189,15.189,0,0,1-17.193-3.312" transform="translate(44.464 8.566)" fill="#fff"></path>
      </g>
      <g id="Group_162252" data-name="Group 162252" transform="translate(140.327 20.51)">
        <path id="Path_7" data-name="Path 7" d="M-.846-.845a4.52,4.52,0,0,1,6.426,0,4.359,4.359,0,0,1,0,6.371,4.521,4.521,0,0,1-6.426,0,4.452,4.452,0,0,1,0-6.371" transform="translate(2.188 2.186)" fill="#f03"></path>
      </g>
    </g>
  </g>
</svg>
