<?xml version="1.0" encoding="UTF-8"?>
<svg xmlns="http://www.w3.org/2000/svg" width="91.692" height="85.322" viewBox="0 0 91.692 85.322">
  <g id="publicsector_icon" transform="translate(-1397.879 -715.894)">
    <path id="Path_83379" data-name="Path 83379" d="M837.2,120.575h-3.81v-6.584a1.776,1.776,0,0,0-1.777-1.777h-5.969V83.9h5.969a1.776,1.776,0,0,0,1.777-1.777V73.76h-.01a1.769,1.769,0,0,0-.8-1.493L794.1,47.45a1.779,1.779,0,0,0-1.926,0l-12.3,7.931a1.043,1.043,0,0,0-.294,1.467l.834,1.211a1.041,1.041,0,0,0,1.422.285l11.3-7.286,32.447,20.925h-64.9L771.366,65.1a1.041,1.041,0,0,0,.293-1.466l-.834-1.212a1.042,1.042,0,0,0-1.422-.285L753.688,72.266a1.769,1.769,0,0,0-.8,1.493h-.01v8.361a1.777,1.777,0,0,0,1.777,1.777h5.969v28.316h-5.969a1.777,1.777,0,0,0-1.777,1.777v6.584h-3.811a1.777,1.777,0,0,0-1.777,1.777v8.36a1.777,1.777,0,0,0,1.777,1.777H837.2a1.776,1.776,0,0,0,1.777-1.777v-8.36A1.776,1.776,0,0,0,837.2,120.575ZM756.428,80.344V75.537h73.41v4.807ZM822.092,83.9v28.316h-4.341V83.9Zm-7.895,0v28.316h-6.409V83.9Zm-9.963,0v28.316h-4.343V83.9Zm-7.9,0v28.316h-6.409V83.9Zm-9.963,0v28.316h-4.342V83.9Zm-7.9,0v28.316H772.07V83.9Zm-9.963,0v28.316h-4.342V83.9Zm-12.088,31.87h73.41v4.807h-73.41Zm79,13.168H750.841v-4.806h84.585Z" transform="translate(650.592 668.727)" fill="#0f253d"></path>
    <circle id="Ellipse_9427" data-name="Ellipse 9427" cx="3.423" cy="3.423" r="3.423" transform="translate(1422.671 725.373)" fill="#ff0046"></circle>
  </g>
</svg>
