<?xml version="1.0" encoding="UTF-8"?>
<svg xmlns="http://www.w3.org/2000/svg" width="129.695" height="68.751" viewBox="0 0 129.695 68.751">
  <g id="Group_162333" data-name="Group 162333" transform="translate(-757.493 -728.585)">
    <circle id="Ellipse_9427" data-name="Ellipse 9427" cx="3.423" cy="3.423" r="3.423" transform="translate(834.12 782.899)" fill="#ff0046"></circle>
    <rect id="Rectangle_147687" data-name="Rectangle 147687" width="129.695" height="4.141" rx="1.935" transform="translate(757.493 793.196)" fill="#0f253d"></rect>
    <g id="Group_162278" data-name="Group 162278" transform="translate(757.64 728.585)">
      <path id="Path_83319" data-name="Path 83319" d="M101.834,99.276a5.862,5.862,0,0,0-1.174-6.5L85.751,77.511c-.042-.052-.088-.1-.134-.149a7.2,7.2,0,0,0-5.125-2.122H27.222a.57.57,0,0,0-.569.569v3a.57.57,0,0,0,.569.569H42.136l.149,19.334H27.371a.569.569,0,0,0-.569.569v3a.569.569,0,0,0,.569.569H96.289A6.026,6.026,0,0,0,101.834,99.276ZM82.625,80.228l14.9,15.251a1.95,1.95,0,0,0,.136.148,1.812,1.812,0,0,1-1.285,3.093H72.307l-.148-19.334h8.333A3.086,3.086,0,0,1,82.625,80.228ZM46.277,79.38H68.018l.149,19.334H46.426Z" transform="translate(-26.653 -62.99)" fill="#0f253d"></path>
      <rect id="Rectangle_147688" data-name="Rectangle 147688" width="74.823" height="4.141" rx="1.093" transform="translate(0.046 55.665)" fill="#0f253d"></rect>
      <path id="Path_83320" data-name="Path 83320" d="M111.376,71.8H105.04a6.029,6.029,0,0,0-5.567,3.619,5.863,5.863,0,0,0,1.268,6.543l14.968,13.876a7.192,7.192,0,0,0,5.125,2.122h18.758c2.261,2.638,2.906,4.129,2.906,5.694,0,10.624-16.594,13.458-26.4,13.458h-3.7a.569.569,0,0,0-.569.569v3a.569.569,0,0,0,.569.569h3.711a52.028,52.028,0,0,0,19.51-3.476c7.217-3.073,11.031-7.958,11.031-14.124,0-2.927-1.125-5.244-4.3-8.854-3.027-3.442-7.661-7.085-16.245-15.235-2.753-2.615-6.239-5.578-9.758-8.937a33.018,33.018,0,0,0-22.892-9.181H27.222a.57.57,0,0,0-.569.569v3a.57.57,0,0,0,.569.569H93.446A28.86,28.86,0,0,1,111.376,71.8Zm11.868,10.769c5.853,5.558,9.49,8.268,12.462,11.249H120.834a3.082,3.082,0,0,1-2.2-.91L103.67,79.038a1.812,1.812,0,0,1,1.285-3.093h10.958C118.454,78.372,121.139,80.576,123.244,82.574Z" transform="translate(-26.653 -61.452)" fill="#0f253d"></path>
    </g>
  </g>
</svg>
