<?xml version="1.0" encoding="UTF-8"?>
<svg xmlns="http://www.w3.org/2000/svg" width="34" height="31" viewBox="0 0 34 31">
  <g>
    <g>
      <g>
        <path fill="#fff" d="M27.979 4.907l.541-.834.404.263a.588.588 0 0 0 .641-.987l-.896-.583h-.001l-.002-.002-.896-.581a.588.588 0 1 0-.641.987l.404.262-.53.815a14.114 14.114 0 0 0-6.91-2.1v-.97h.482a.589.589 0 0 0 0-1.177h-2.14a.589.589 0 0 0 0 1.178h.481v.975a14.184 14.184 0 0 0-6.85 2.119l-.526-.81.404-.262a.589.589 0 0 0-.64-.987l-.898.582-.001.001-.897.582a.589.589 0 0 0 .641.988l.404-.263.539.83a14.228 14.228 0 0 0-4.064 4.711.589.589 0 0 0 1.038.556 13.02 13.02 0 0 1 11.39-6.884.594.594 0 0 0 .116-.002c7.18.006 13.018 5.85 13.018 13.03 0 7.186-5.845 13.03-13.03 13.03-4.815 0-9.22-2.639-11.496-6.888a.589.589 0 1 0-1.038.556 14.196 14.196 0 0 0 12.534 7.51c7.834 0 14.208-6.373 14.208-14.207 0-4.686-2.28-8.849-5.79-11.438"></path>
      </g>
      <g>
        <path fill="#fff" d="M6.53 16.345a.589.589 0 0 0-.59-.59H.59a.589.589 0 1 0 0 1.178H5.94a.589.589 0 0 0 .588-.588"></path>
      </g>
      <g>
        <path fill="#fff" d="M9.586 19.556a.589.589 0 0 0-.589-.589H3.645a.589.589 0 1 0 0 1.178h5.352a.589.589 0 0 0 .589-.59"></path>
      </g>
      <g>
        <path fill="#fff" d="M3.645 13.722h5.352a.589.589 0 0 0 0-1.177H3.645a.589.589 0 0 0 0 1.177"></path>
      </g>
      <g>
        <path fill="#fff" d="M25.674 7.26a10.929 10.929 0 0 0-6.145-1.88c-2.2 0-4.325.65-6.145 1.88a.589.589 0 1 0 .66.976 9.756 9.756 0 0 1 5.485-1.679c1.964 0 3.86.58 5.485 1.679a.585.585 0 0 0 .818-.158.589.589 0 0 0-.158-.817"></path>
      </g>
      <g>
        <path fill="#fff" d="M19.564 18.233a1.89 1.89 0 0 1-1.888-1.888 1.89 1.89 0 0 1 1.888-1.889 1.89 1.89 0 0 1 1.888 1.889 1.89 1.89 0 0 1-1.888 1.888m6.423-8.4a.59.59 0 0 0-.833.004l-3.91 3.945a3.048 3.048 0 0 0-1.68-.503 3.07 3.07 0 0 0-3.066 3.066 3.07 3.07 0 0 0 3.066 3.065 3.07 3.07 0 0 0 3.066-3.065c0-.646-.201-1.245-.543-1.74l3.904-3.94a.589.589 0 0 0-.004-.832"></path>
      </g>
    </g>
  </g>
</svg>
