<?xml version="1.0" encoding="UTF-8"?>
<svg xmlns="http://www.w3.org/2000/svg" width="262.772" height="412.738" viewBox="0 0 262.772 412.738">
  <g id="tech_icon" transform="translate(-802.336 -558.55) rotate(7)">
    <g id="Group_162318" data-name="Group 162318" transform="translate(911.504 450.826)">
      <path id="Path_83351" data-name="Path 83351" d="M1128.462,550.906V472.49a21.663,21.663,0,0,0-21.664-21.664H933.168A21.662,21.662,0,0,0,911.5,472.49V818.36a21.663,21.663,0,0,0,21.664,21.664H1106.8a21.664,21.664,0,0,0,21.664-21.664V586.68a2.68,2.68,0,0,0-2.679-2.68H1116.4a2.68,2.68,0,0,0-2.68,2.68V748.208H926.249V523.471h187.468v27.435a2.679,2.679,0,0,0,2.68,2.68h9.386A2.679,2.679,0,0,0,1128.462,550.906Zm-14.745,212.048V818.36a6.927,6.927,0,0,1-6.918,6.918H933.168a6.926,6.926,0,0,1-6.919-6.918V762.954ZM926.249,508.724V472.49a6.925,6.925,0,0,1,6.919-6.918H1106.8a6.926,6.926,0,0,1,6.918,6.918v36.234Z" transform="translate(-911.504 -450.826)" fill="#fff"></path>
      <rect id="Rectangle_147755" data-name="Rectangle 147755" width="77.138" height="14.745" rx="1.601" transform="translate(69.91 28.842)" fill="#fff"></rect>
      <circle id="Ellipse_9431" data-name="Ellipse 9431" cx="16.092" cy="16.092" r="16.092" transform="translate(92.387 326.307)" fill="#fff"></circle>
    </g>
    <circle id="Ellipse_9432" data-name="Ellipse 9432" cx="10.458" cy="10.458" r="10.458" transform="translate(1108.508 560.308) rotate(-13.283)" fill="#fd0e33"></circle>
  </g>
</svg>
