<?xml version="1.0" encoding="UTF-8"?>
<svg xmlns="http://www.w3.org/2000/svg" width="154.761" height="91.853" viewBox="0 0 154.761 91.853">
  <g id="travel_icon" transform="translate(-57.818 -294.289)">
    <path id="Path_83557" data-name="Path 83557" d="M277.862,572.327a3.525,3.525,0,1,1,3.525-3.525A3.529,3.529,0,0,1,277.862,572.327Z" transform="translate(-178.577 -223.526)" fill="#fd0e33"></path>
    <path id="Path_83558" data-name="Path 83558" d="M96,386.017a1.832,1.832,0,0,1-1.534-2.835L118.1,347.044H104.435a.319.319,0,0,1-.319-.319V343.7a.319.319,0,0,1,.319-.319h17.056a1.832,1.832,0,0,1,1.534,2.835L99.389,382.352h18.727L161.871,343.9a1.831,1.831,0,0,1,1.21-.456h36.125a19.693,19.693,0,0,0,9.2-2.292l.626-.332-18.473-18.473a14.04,14.04,0,0,0-9.86-4.085H85.937a1.82,1.82,0,0,1-1.3-.537L75.115,308.2H62.833l18.834,35.178H94.136a.319.319,0,0,1,.319.319v3.028a.319.319,0,0,1-.319.319H80.57a1.832,1.832,0,0,1-1.616-.97L58.159,307.231a1.831,1.831,0,0,1,1.615-2.7h16.1a1.821,1.821,0,0,1,1.3.537L86.7,314.6h29.371l-11.885-17.31a1.831,1.831,0,0,1,1.51-2.871h26.5a1.82,1.82,0,0,1,1.3.537L153.13,314.6h27.564a17.5,17.5,0,0,1,12.455,5.159l18.122,18.122a4.032,4.032,0,0,1-.918,6.39,23.372,23.372,0,0,1-11.147,2.842H163.774l-43.755,38.452a1.832,1.832,0,0,1-1.21.456ZM120.513,314.6h27.433l-16.516-16.516H109.174Z" transform="translate(0 0)" fill="#152137"></path>
    <path id="Path_83558_-_Outline" data-name="Path 83558 - Outline" d="M118.809,386.142H96a1.957,1.957,0,0,1-1.639-3.028l23.51-35.944H104.435a.444.444,0,0,1-.444-.444V343.7a.444.444,0,0,1,.444-.444h17.056a1.957,1.957,0,0,1,1.639,3.029L99.62,382.227h18.449l43.72-38.421a1.956,1.956,0,0,1,1.292-.487h36.125a19.568,19.568,0,0,0,9.139-2.278l.477-.253-18.353-18.354a13.915,13.915,0,0,0-9.772-4.048H85.937a1.944,1.944,0,0,1-1.384-.573l-9.49-9.486H63.042l18.7,34.928H94.136a.444.444,0,0,1,.444.444v3.028a.444.444,0,0,1-.444.444H80.57a1.957,1.957,0,0,1-1.726-1.035L58.049,307.29a1.956,1.956,0,0,1,1.726-2.88h16.1a1.946,1.946,0,0,1,1.384.573l9.49,9.487h29.081l-11.751-17.115a1.956,1.956,0,0,1,1.613-3.067h26.5a1.945,1.945,0,0,1,1.384.573l19.608,19.608h27.513a17.622,17.622,0,0,1,12.543,5.2l18.122,18.122a4.157,4.157,0,0,1-.946,6.588,23.5,23.5,0,0,1-11.207,2.857H163.821L120.1,385.655A1.957,1.957,0,0,1,118.809,386.142ZM104.435,343.5a.194.194,0,0,0-.194.194v3.028a.194.194,0,0,0,.194.194h13.9L94.571,383.25A1.707,1.707,0,0,0,96,385.892h22.808a1.707,1.707,0,0,0,1.127-.425l43.79-38.483h35.479a23.246,23.246,0,0,0,11.087-2.827,3.907,3.907,0,0,0,.889-6.192L193.06,319.843a17.374,17.374,0,0,0-12.366-5.122H153.078l-.037-.037L133.4,295.039a1.7,1.7,0,0,0-1.208-.5h-26.5a1.706,1.706,0,0,0-1.407,2.675L116.3,314.72H86.644l-9.563-9.56a1.7,1.7,0,0,0-1.207-.5h-16.1a1.706,1.706,0,0,0-1.505,2.512l20.795,38.844a1.707,1.707,0,0,0,1.506.9H94.136a.194.194,0,0,0,.194-.194V343.7a.194.194,0,0,0-.194-.194H81.592L62.625,308.076H75.167l.037.037,9.526,9.523a1.7,1.7,0,0,0,1.207.5H180.7a14.167,14.167,0,0,1,9.948,4.122l18.593,18.593-.776.411a19.819,19.819,0,0,1-9.256,2.307H163.081a1.707,1.707,0,0,0-1.127.425l-43.791,38.483H99.158l23.763-36.331a1.707,1.707,0,0,0-1.43-2.642Zm43.814-28.784h-27.8l-.037-.054-11.474-16.712h22.546l.037.037Zm-27.669-.25h27.066L131.379,298.2H109.411Z" transform="translate(0 0)" fill="#152137"></path>
  </g>
</svg>
