<?xml version="1.0" encoding="UTF-8"?>
<svg xmlns="http://www.w3.org/2000/svg" width="28" height="28" viewBox="0 0 28 28">
  <g>
    <g>
      <path fill="#fff" d="M7.172 21.02c.268.746.579 1.448.93 2.096.49.904 1.04 1.67 1.635 2.288a12.427 12.427 0 0 1-4.881-3.014 11.047 11.047 0 0 1 2.316-1.37zM9.737 1.844c-.595.618-1.145 1.384-1.635 2.288-.351.648-.662 1.35-.93 2.095-.86-.382-1.641-.841-2.316-1.37a12.427 12.427 0 0 1 4.88-3.013zm10.34 4.383a15.273 15.273 0 0 0-.93-2.095c-.49-.904-1.039-1.67-1.634-2.288a12.43 12.43 0 0 1 4.881 3.014c-.675.528-1.457.987-2.316 1.37zm1.202 6.788c-.049-1.986-.332-3.897-.827-5.625a12.318 12.318 0 0 0 2.763-1.627 12.345 12.345 0 0 1 2.801 7.252zm4.737 1.219a12.344 12.344 0 0 1-2.801 7.252 12.312 12.312 0 0 0-2.763-1.627c.495-1.728.778-3.639.827-5.625zm-11.782 4.28v-4.28h5.826c-.047 1.834-.304 3.594-.75 5.185a17.669 17.669 0 0 0-5.076-.904zm0 1.22c1.661.057 3.266.35 4.709.844-.25.698-.54 1.354-.867 1.959-1.07 1.973-2.415 3.17-3.842 3.436zm-1.219 0v6.239c-1.426-.267-2.772-1.463-3.841-3.436a14.14 14.14 0 0 1-.868-1.96 16.422 16.422 0 0 1 4.71-.843zm-5.825-5.5h5.825v4.28a17.664 17.664 0 0 0-5.076.905c-.445-1.591-.703-3.35-.75-5.185zm-1.219 0c.048 1.986.332 3.897.826 5.625a12.312 12.312 0 0 0-2.762 1.627 12.345 12.345 0 0 1-2.801-7.252zm-4.737-1.219a12.345 12.345 0 0 1 2.801-7.252c.8.635 1.734 1.182 2.762 1.627-.494 1.728-.778 3.639-.826 5.625zm11.781 0H7.19c.046-1.835.304-3.594.75-5.185 1.563.532 3.293.846 5.075.904zm0-11.739v6.24a16.427 16.427 0 0 1-4.709-.845c.25-.698.54-1.354.868-1.959 1.07-1.973 2.415-3.17 3.841-3.436zm1.22 0c1.426.266 2.772 1.463 3.84 3.436.328.605.618 1.261.868 1.96a16.42 16.42 0 0 1-4.709.843zm0 7.458a17.672 17.672 0 0 0 5.076-.904c.445 1.59.702 3.35.749 5.185h-5.826zm3.278 16.67c.595-.617 1.145-1.383 1.634-2.287.352-.648.662-1.35.93-2.095.86.382 1.642.841 2.317 1.37a12.43 12.43 0 0 1-4.881 3.013M13.625 0C6.112 0 0 6.11 0 13.623c0 7.513 6.112 13.624 13.625 13.624S27.25 21.136 27.25 13.623C27.25 6.111 21.138 0 13.625 0"></path>
    </g>
  </g>
</svg>
